<?xml version="1.0" encoding="UTF-8" standalone="no"?> <svg width="64" height="64" viewBox="0 0 64 64" fill="none" xmlns="http://www.w3.org/2000/svg">
<path d="M42 25C42.5523 25 43 24.5523 43 24C43 23.4477 42.5523 23 42 23C41.4477 23 41 23.4477 41 24C41 24.5523 41.4477 25 42 25Z" fill="#231F20"/>
<path d="M32 25C32.5523 25 33 24.5523 33 24C33 23.4477 32.5523 23 32 23C31.4477 23 31 23.4477 31 24C31 24.5523 31.4477 25 32 25Z" fill="#231F20"/>
<path d="M51 50C50.7348 50 50.4804 50.1054 50.2929 50.2929C50.1054 50.4804 50 50.7348 50 51V61C50 61.2652 50.1054 61.5196 50.2929 61.7071C50.4804 61.8946 50.7348 62 51 62C51.2652 62 51.5196 61.8946 51.7071 61.7071C51.8946 61.5196 52 61.2652 52 61V51C52 50.7348 51.8946 50.4804 51.7071 50.2929C51.5196 50.1054 51.2652 50 51 50Z" fill="#231F20"/>
<path d="M53 36H43V34.21C44.2463 33.3944 45.3148 32.3353 46.1414 31.0963C46.968 29.8573 47.5356 28.4639 47.81 27H49C49.7957 27 50.5587 26.6839 51.1213 26.1213C51.6839 25.5587 52 24.7956 52 24V23.51C52.6573 21.7471 52.9959 19.8814 53 18C52.9971 16.7289 52.8393 15.4629 52.53 14.23C53.3538 13.7857 54.0718 13.1685 54.6347 12.4207C55.1976 11.6729 55.5921 10.8122 55.7911 9.89759C55.9901 8.98301 55.9889 8.03621 55.7876 7.12212C55.5864 6.20804 55.1898 5.3483 54.625 4.60189C54.0603 3.85547 53.3408 3.24004 52.5159 2.79781C51.6909 2.35557 50.7801 2.097 49.8459 2.03983C48.9117 1.98265 47.9761 2.12823 47.1034 2.46657C46.2307 2.80492 45.4416 3.32802 44.79 4C42.4092 2.67296 39.7257 1.98401 37 2C34.4263 2.00343 31.8913 2.6277 29.6103 3.81984C27.3293 5.01198 25.3695 6.73681 23.8973 8.84794C22.4251 10.9591 21.4839 13.3942 21.1536 15.9467C20.8233 18.4992 21.1137 21.0937 22 23.51V24C22 24.7956 22.3161 25.5587 22.8787 26.1213C23.4413 26.6839 24.2044 27 25 27H26.19C26.4645 28.4639 27.032 29.8573 27.8586 31.0963C28.6852 32.3353 29.7537 33.3944 31 34.21V36H21C18.8124 36.0031 16.7008 36.803 15.06 38.25C14.8656 38.4293 14.7501 38.6783 14.7389 38.9426C14.7276 39.2069 14.8215 39.4648 15 39.66C15.0926 39.7654 15.2063 39.8502 15.3338 39.9087C15.4613 39.9673 15.5997 39.9984 15.74 40C15.9865 40.0021 16.2251 39.9131 16.41 39.75C17.675 38.6258 19.3077 38.0033 21 38H31.09C31.3336 39.3906 32.0598 40.6507 33.1407 41.5588C34.2217 42.4669 35.5883 42.9647 37 42.9647C38.4118 42.9647 39.7783 42.4669 40.8593 41.5588C41.9403 40.6507 42.6664 39.3906 42.91 38H53C54.8565 38 56.637 38.7375 57.9498 40.0502C59.2625 41.363 60 43.1435 60 45V61C60 61.2652 60.1054 61.5196 60.2929 61.7071C60.4804 61.8946 60.7348 62 61 62C61.2652 62 61.5196 61.8946 61.7071 61.7071C61.8947 61.5196 62 61.2652 62 61V45C62 42.613 61.0518 40.3239 59.364 38.636C57.6761 36.9482 55.387 36 53 36V36ZM43 27C42.4067 27 41.8267 26.8241 41.3333 26.4944C40.84 26.1648 40.4554 25.6962 40.2284 25.148C40.0013 24.5999 39.9419 23.9967 40.0577 23.4147C40.1734 22.8328 40.4591 22.2982 40.8787 21.8787C41.2983 21.4591 41.8328 21.1734 42.4147 21.0576C42.9967 20.9419 43.5999 21.0013 44.1481 21.2284C44.6962 21.4554 45.1648 21.8399 45.4944 22.3333C45.8241 22.8266 46 23.4067 46 24C46 24.7956 45.6839 25.5587 45.1213 26.1213C44.5587 26.6839 43.7957 27 43 27ZM50 24C50 24.2652 49.8947 24.5196 49.7071 24.7071C49.5196 24.8946 49.2652 25 49 25H48V21H49C49.2652 21 49.5196 21.1054 49.7071 21.2929C49.8947 21.4804 50 21.7348 50 22V24ZM49.5 4C50.474 3.99317 51.4237 4.30397 52.2052 4.88531C52.9868 5.46666 53.5575 6.28686 53.8311 7.22169C54.1047 8.15653 54.0661 9.15504 53.7212 10.066C53.3764 10.9769 52.7441 11.7507 51.92 12.27C50.8256 9.43314 48.9456 6.96684 46.5 5.16C47.3214 4.41448 48.3907 4.00102 49.5 4V4ZM37 4C40.713 4 44.274 5.47499 46.8995 8.1005C49.525 10.726 51 14.287 51 18C50.9949 18.5619 50.9548 19.123 50.88 19.68C50.352 19.2407 49.6869 19.0001 49 19H48V16.46C48 16.1948 47.8947 15.9404 47.7071 15.7529C47.5196 15.5654 47.2652 15.46 47 15.46C46.7348 15.46 46.4804 15.5654 46.2929 15.7529C46.1054 15.9404 46 16.1948 46 16.46V20C45.1373 19.3456 44.0828 18.9941 43 19C41.9381 19.0048 40.9054 19.3476 40.0514 19.9787C39.1974 20.6098 38.5664 21.4964 38.25 22.51L37.45 22.11C37.3104 22.0397 37.1563 22.003 37 22.003C36.8437 22.003 36.6896 22.0397 36.55 22.11L35.75 22.51C35.4336 21.4964 34.8027 20.6098 33.9487 19.9787C33.0946 19.3476 32.0619 19.0048 31 19C29.9172 18.9941 28.8627 19.3456 28 20V18.32C29.5702 19.0646 31.3612 19.1986 33.0246 18.6959C34.6881 18.1932 36.1051 17.0896 37 15.6C37.6215 16.6365 38.5008 17.4943 39.5523 18.0902C40.6037 18.686 41.7915 18.9994 43 19C43.2652 19 43.5196 18.8946 43.7071 18.7071C43.8947 18.5196 44 18.2652 44 18C44 17.7348 43.8947 17.4804 43.7071 17.2929C43.5196 17.1054 43.2652 17 43 17C41.6739 17 40.4022 16.4732 39.4645 15.5355C38.5268 14.5978 38 13.3261 38 12C38 11.7348 37.8947 11.4804 37.7071 11.2929C37.5196 11.1054 37.2652 11 37 11C36.7348 11 36.4804 11.1054 36.2929 11.2929C36.1054 11.4804 36 11.7348 36 12C35.9981 12.964 35.7176 13.9069 35.1923 14.7152C34.6669 15.5234 33.9191 16.1626 33.0388 16.5557C32.1586 16.9488 31.1835 17.079 30.231 16.9308C29.2785 16.7825 28.3891 16.362 27.67 15.72C27.5259 15.5899 27.3471 15.5045 27.1553 15.4743C26.9635 15.4442 26.7671 15.4704 26.59 15.55C26.4146 15.6289 26.2656 15.7567 26.1609 15.9181C26.0563 16.0795 26.0004 16.2676 26 16.46V19H25C24.3132 19.0001 23.648 19.2407 23.12 19.68C23.0452 19.123 23.0052 18.5619 23 18C23 14.287 24.475 10.726 27.1005 8.1005C29.726 5.47499 33.287 4 37 4V4ZM34 24C34 24.5933 33.8241 25.1734 33.4944 25.6667C33.1648 26.1601 32.6962 26.5446 32.1481 26.7716C31.5999 26.9987 30.9967 27.0581 30.4147 26.9424C29.8328 26.8266 29.2983 26.5409 28.8787 26.1213C28.4591 25.7018 28.1734 25.1672 28.0577 24.5853C27.9419 24.0033 28.0013 23.4001 28.2284 22.8519C28.4554 22.3038 28.84 21.8352 29.3333 21.5056C29.8267 21.1759 30.4067 21 31 21C31.7957 21 32.5587 21.3161 33.1213 21.8787C33.6839 22.4413 34 23.2043 34 24V24ZM25 25C24.7348 25 24.4804 24.8946 24.2929 24.7071C24.1054 24.5196 24 24.2652 24 24V22C24 21.7348 24.1054 21.4804 24.2929 21.2929C24.4804 21.1054 24.7348 21 25 21H26V25H25ZM28.67 28.4C29.3783 28.7842 30.1698 28.9894 30.9755 28.9976C31.7813 29.0057 32.5768 28.8167 33.2927 28.4469C34.0086 28.0771 34.6232 27.5378 35.0829 26.876C35.5426 26.2142 35.8334 25.45 35.93 24.65L37 24.12L38.07 24.65C38.1666 25.45 38.4574 26.2142 38.9171 26.876C39.3768 27.5378 39.9914 28.0771 40.7073 28.4469C41.4232 28.8167 42.2187 29.0057 43.0245 28.9976C43.8302 28.9894 44.6217 28.7842 45.33 28.4C44.6535 30.0538 43.5001 31.4687 42.0166 32.4647C40.5331 33.4606 38.7868 33.9925 37 33.9925C35.2132 33.9925 33.4669 33.4606 31.9834 32.4647C30.5 31.4687 29.3465 30.0538 28.67 28.4ZM37 41C35.9391 41 34.9217 40.5786 34.1716 39.8284C33.4214 39.0783 33 38.0609 33 37V35.24C35.5705 36.253 38.4295 36.253 41 35.24V37C41 38.0609 40.5786 39.0783 39.8284 39.8284C39.0783 40.5786 38.0609 41 37 41Z" fill="#231F20"/>
<path d="M26 56H25V45C25 44.2044 24.6839 43.4413 24.1213 42.8787C23.5587 42.3161 22.7956 42 22 42H6C5.20435 42 4.44129 42.3161 3.87868 42.8787C3.31607 43.4413 3 44.2044 3 45V56H2C1.73478 56 1.48043 56.1054 1.29289 56.2929C1.10536 56.4804 1 56.7348 1 57C1 57.2652 1.10536 57.5196 1.29289 57.7071C1.48043 57.8946 1.73478 58 2 58H25V59C25 59.2652 24.8946 59.5196 24.7071 59.7071C24.5196 59.8946 24.2652 60 24 60H4C3.73478 60 3.48043 60.1054 3.29289 60.2929C3.10536 60.4804 3 60.7348 3 61C3 61.2652 3.10536 61.5196 3.29289 61.7071C3.48043 61.8946 3.73478 62 4 62H24C24.7956 62 25.5587 61.6839 26.1213 61.1213C26.6839 60.5587 27 59.7956 27 59V57C27 56.7348 26.8946 56.4804 26.7071 56.2929C26.5196 56.1054 26.2652 56 26 56ZM5 56V45C5 44.7348 5.10536 44.4804 5.29289 44.2929C5.48043 44.1054 5.73478 44 6 44H22C22.2652 44 22.5196 44.1054 22.7071 44.2929C22.8946 44.4804 23 44.7348 23 45V56H5Z" fill="#231F20"/>
<path d="M14 47C13.4067 47 12.8266 47.1759 12.3333 47.5056C11.8399 47.8352 11.4554 48.3038 11.2284 48.852C11.0013 49.4001 10.9419 50.0033 11.0576 50.5853C11.1734 51.1672 11.4591 51.7018 11.8787 52.1213C12.2982 52.5409 12.8328 52.8266 13.4147 52.9424C13.9967 53.0581 14.5999 52.9987 15.1481 52.7716C15.6962 52.5446 16.1648 52.1601 16.4944 51.6667C16.8241 51.1734 17 50.5933 17 50C17 49.2044 16.6839 48.4413 16.1213 47.8787C15.5587 47.3161 14.7957 47 14 47V47ZM14 51C13.8022 51 13.6089 50.9414 13.4444 50.8315C13.28 50.7216 13.1518 50.5654 13.0761 50.3827C13.0004 50.2 12.9806 49.9989 13.0192 49.8049C13.0578 49.6109 13.153 49.4327 13.2929 49.2929C13.4327 49.153 13.6109 49.0578 13.8049 49.0192C13.9989 48.9806 14.2 49.0004 14.3827 49.0761C14.5654 49.1518 14.7216 49.28 14.8315 49.4444C14.9414 49.6089 15 49.8022 15 50C15 50.2652 14.8946 50.5196 14.7071 50.7071C14.5196 50.8946 14.2652 51 14 51Z" fill="#231F20"/>
<path d="M3 33H17C17.2652 33 17.5196 32.8946 17.7071 32.7071C17.8946 32.5196 18 32.2652 18 32V30C18 29.7348 17.8946 29.4804 17.7071 29.2929C17.5196 29.1054 17.2652 29 17 29C16.7348 29 16.4804 29.1054 16.2929 29.2929C16.1054 29.4804 16 29.7348 16 30V31H4V21H16V26C16 26.2652 16.1054 26.5196 16.2929 26.7071C16.4804 26.8946 16.7348 27 17 27C17.2652 27 17.5196 26.8946 17.7071 26.7071C17.8946 26.5196 18 26.2652 18 26V16C18 15.7348 17.8946 15.4804 17.7071 15.2929C17.5196 15.1054 17.2652 15 17 15H13.39L13.46 14.95L17.71 10.71C17.8983 10.5217 18.0041 10.2663 18.0041 10C18.0041 9.7337 17.8983 9.47831 17.71 9.29C17.5217 9.1017 17.2663 8.99591 17 8.99591C16.7337 8.99591 16.4783 9.1017 16.29 9.29L12.76 12.83L11.34 11.41C11.1526 11.2238 10.8992 11.1192 10.635 11.1192C10.3708 11.1192 10.1174 11.2238 9.93 11.41C9.83627 11.503 9.76188 11.6136 9.71111 11.7354C9.66034 11.8573 9.6342 11.988 9.6342 12.12C9.6342 12.252 9.66034 12.3827 9.71111 12.5046C9.76188 12.6264 9.83627 12.737 9.93 12.83L12.05 15L12.13 15.05H3C2.73478 15.05 2.48043 15.1554 2.29289 15.3429C2.10536 15.5304 2 15.7848 2 16.05V32C2 32.2652 2.10536 32.5196 2.29289 32.7071C2.48043 32.8946 2.73478 33 3 33ZM16 19H8V17H16V19ZM4 17H6V19H4V17Z" fill="#231F20"/>
<path d="M14 24C14 23.7348 13.8946 23.4804 13.7071 23.2929C13.5196 23.1054 13.2652 23 13 23H7C6.73478 23 6.48043 23.1054 6.29289 23.2929C6.10536 23.4804 6 23.7348 6 24C6 24.2652 6.10536 24.5196 6.29289 24.7071C6.48043 24.8946 6.73478 25 7 25H13C13.2652 25 13.5196 24.8946 13.7071 24.7071C13.8946 24.5196 14 24.2652 14 24Z" fill="#231F20"/>
<path d="M7 27C6.73478 27 6.48043 27.1054 6.29289 27.2929C6.10536 27.4804 6 27.7348 6 28C6 28.2652 6.10536 28.5196 6.29289 28.7071C6.48043 28.8946 6.73478 29 7 29H11C11.2652 29 11.5196 28.8946 11.7071 28.7071C11.8946 28.5196 12 28.2652 12 28C12 27.7348 11.8946 27.4804 11.7071 27.2929C11.5196 27.1054 11.2652 27 11 27H7Z" fill="#231F20"/>
<path d="M36 56H32C31.2044 56 30.4413 56.3161 29.8787 56.8787C29.3161 57.4413 29 58.2044 29 59V61C29 61.2652 29.1054 61.5196 29.2929 61.7071C29.4804 61.8946 29.7348 62 30 62H38C38.2652 62 38.5196 61.8946 38.7071 61.7071C38.8946 61.5196 39 61.2652 39 61V59C39 58.2044 38.6839 57.4413 38.1213 56.8787C37.5587 56.3161 36.7956 56 36 56V56ZM37 60H31V59C31 58.7348 31.1054 58.4804 31.2929 58.2929C31.4804 58.1054 31.7348 58 32 58H36C36.2652 58 36.5196 58.1054 36.7071 58.2929C36.8946 58.4804 37 58.7348 37 59V60Z" fill="#231F20"/>
<path d="M31 52C31.2136 51.9983 31.4211 51.9283 31.5921 51.8001C31.763 51.672 31.8885 51.4925 31.95 51.2878C32.0114 51.0832 32.0058 50.8643 31.9338 50.6631C31.8618 50.462 31.7273 50.2891 31.55 50.17L29.8 49L31.55 47.83C31.6726 47.7642 31.7801 47.6736 31.8657 47.5639C31.9513 47.4542 32.0131 47.3278 32.047 47.1929C32.081 47.058 32.0864 46.9174 32.063 46.7803C32.0396 46.6431 31.9877 46.5124 31.9109 46.3964C31.834 46.2804 31.7338 46.1817 31.6166 46.1067C31.4995 46.0316 31.3679 45.9819 31.2304 45.9606C31.0929 45.9392 30.9525 45.9469 30.8181 45.9829C30.6837 46.019 30.5583 46.0827 30.45 46.17L27.45 48.17C27.3139 48.2615 27.2023 48.385 27.1252 48.5298C27.0481 48.6745 27.0078 48.836 27.0078 49C27.0078 49.164 27.0481 49.3255 27.1252 49.4702C27.2023 49.615 27.3139 49.7385 27.45 49.83L30.45 51.83C30.611 51.9428 30.8034 52.0022 31 52V52Z" fill="#231F20"/>
<path d="M34.5 52C34.7284 52.0067 34.9523 51.9349 35.1342 51.7966C35.3162 51.6583 35.4453 51.4619 35.5 51.24L36.5 47.24C36.5374 47.1107 36.5482 46.9752 36.532 46.8416C36.5157 46.708 36.4727 46.5791 36.4054 46.4625C36.3381 46.3459 36.248 46.2442 36.1405 46.1633C36.0329 46.0824 35.9101 46.024 35.7795 45.9917C35.6489 45.9593 35.513 45.9537 35.3802 45.9751C35.2473 45.9966 35.1201 46.0446 35.0063 46.1163C34.8924 46.1881 34.7942 46.2821 34.7175 46.3927C34.6408 46.5033 34.5873 46.6282 34.56 46.76L33.56 50.76C33.5236 50.8874 33.5129 51.0207 33.5284 51.1523C33.544 51.2839 33.5856 51.411 33.6507 51.5264C33.7158 51.6418 33.8032 51.743 33.9078 51.8243C34.0124 51.9056 34.1321 51.9654 34.26 52C34.3397 52.0096 34.4203 52.0096 34.5 52V52Z" fill="#231F20"/>
<path d="M42.55 48.17L39.55 46.17C39.3304 46.0522 39.0748 46.0206 38.8332 46.0815C38.5916 46.1423 38.3813 46.2911 38.2437 46.4988C38.1061 46.7065 38.0509 46.9581 38.0891 47.2044C38.1273 47.4506 38.256 47.6737 38.45 47.83L40.2 49L38.45 50.17C38.2727 50.2891 38.1381 50.462 38.0662 50.6631C37.9942 50.8643 37.9885 51.0832 38.05 51.2878C38.1115 51.4925 38.2369 51.672 38.4079 51.8001C38.5789 51.9283 38.7864 51.9983 39 52C39.1966 52.0022 39.389 51.9428 39.55 51.83L42.55 49.83C42.6861 49.7385 42.7977 49.615 42.8748 49.4702C42.9519 49.3255 42.9922 49.164 42.9922 49C42.9922 48.836 42.9519 48.6745 42.8748 48.5298C42.7977 48.385 42.6861 48.2615 42.55 48.17Z" fill="#231F20"/>
</svg>
