<?xml version="1.0" encoding="utf-8"?>
<!-- Svg Vector Icons : http://www.onlinewebfonts.com/icon -->
<!DOCTYPE svg PUBLIC "-//W3C//DTD SVG 1.1//EN" "http://www.w3.org/Graphics/SVG/1.1/DTD/svg11.dtd">
<svg version="1.1" xmlns="http://www.w3.org/2000/svg" xmlns:xlink="http://www.w3.org/1999/xlink" x="0px" y="0px" viewBox="0 0 1000 1000" enable-background="new 0 0 1000 1000" xml:space="preserve">
<metadata> Svg Vector Icons : http://www.onlinewebfonts.com/icon </metadata>
<g><path d="M510,929H121.1c-30.9,0-55.6-24.7-55.6-55.6V311.7h148.2c61.7,0,117.3-55.6,117.3-117.3V64.8h401.3c30.9,0,55.6,24.7,55.6,55.6v321c0,18.5,12.3,30.9,30.9,30.9c18.5,0,30.9-12.3,30.9-30.9v-321c0-61.7-49.4-117.3-117.3-117.3H275.4l0,0l0,0c0,0,0,0-6.2,0h-6.2c0,0-6.2,0-6.2,6.2c0,0,0,0-6.2,0L16.2,237.6l0,0c0,0,0,6.2-6.2,6.2c0,0,0,0,0,6.2c0,0,0,0,0,6.2v6.2l0,0v617.3c0,61.7,49.4,117.3,117.3,117.3h388.9c18.5,0,30.9-12.3,30.9-30.9S522.4,929,510,929z M213.7,250H90.3l179-166.7v104.9C269.3,219.1,244.6,250,213.7,250z"/><path d="M682.9,429c0-18.5-12.3-30.9-30.9-30.9H182.9c-18.5,0-30.9,12.3-30.9,30.9c0,18.5,12.3,30.9,30.9,30.9H652C670.5,459.9,682.9,447.5,682.9,429z"/><path d="M182.9,601.9c-18.5,0-30.9,12.3-30.9,30.9s12.3,30.9,30.9,30.9h265.4c18.5,0,30.9-12.3,30.9-30.9s-12.3-30.9-30.9-30.9H182.9z"/><path d="M750.8,651.2c-49.4,0-92.6,43.2-92.6,98.8s43.2,98.8,92.6,98.8c49.4,0,92.6-43.2,92.6-98.8S806.3,651.2,750.8,651.2z M750.8,780.9c-18.5,0-30.9-18.5-30.9-37s12.3-37,30.9-37c18.5,0,30.9,18.5,30.9,37C787.8,762.4,769.3,780.9,750.8,780.9z"/><path d="M985.4,688.3L985.4,688.3L985.4,688.3C985.4,688.3,985.4,682.1,985.4,688.3c0-6.2,0-6.2,0-6.2v-6.2c0,0,0,0-6.2-6.2l-6.2-6.2c0,0,0,0-6.2,0h-6.2h-6.2h-6.2c-18.5,0-24.7-6.2-24.7-12.3c-6.2-6.2-6.2-18.5,6.2-37l0,0V608v-6.2v-6.2v-6.2v-6.2c0,0,0-6.2-6.2-6.2l0,0c-30.9-30.9-67.9-55.6-111.1-67.9c-6.2,0-12.3,0-18.5,0c0,0,0,0-6.2,0c0,0,0,0-6.2,0c-6.2,0-12.3,6.2-12.3,12.3c-12.3,24.7-18.5,24.7-24.7,24.7c-6.2,0-12.3,0-24.7-24.7c-6.2-6.2-12.3-12.3-24.7-18.5c-6.2,0-12.3,0-18.5,0c-43.2,12.3-86.4,37-117.3,67.9c0,18.5,0,30.9,6.2,43.2c0,0,0,0,0,6.2c12.3,24.7,12.3,30.9,6.2,37c-6.2,6.2-6.2,12.3-30.9,12.3c0,0,0,0-6.2,0c0,0,0,0-6.2,0h-6.2c0,0,0,0-6.2,0c0,0-6.2,0-6.2,6.2c0,0,0,0-6.2,6.2v6.2c0,0,0,0,0,6.2c-6.2,18.5-6.2,30.9-6.2,55.6s6.2,49.4,12.3,74.1l0,0c0,6.2,6.2,12.3,12.3,12.3l0,0c6.2,6.2,12.3,6.2,18.5,6.2h6.2c18.5,0,24.7,0,24.7,6.2c6.2,12.3,6.2,18.5,0,37c0,6.2-6.2,12.3-6.2,12.3c0,12.3,0,18.5,6.2,30.9c30.9,30.9,61.7,49.4,98.8,61.7h6.2l0,0l0,0c12.3,0,24.7-6.2,24.7-18.5c6.2-18.5,18.5-18.5,30.9-18.5c6.2,0,12.3,0,24.7,24.7c6.2,12.3,18.5,12.3,24.7,12.3c0,0,0,0,6.2,0h6.2c37-12.3,67.9-30.9,98.8-55.6c12.3-12.3,12.3-24.7,6.2-37c0,0,0,0,0-6.2c-12.3-24.7-6.2-37-6.2-37c0-6.2,6.2-12.3,37-12.3c6.2,0,12.3,0,18.5-6.2c12.3,0,18.5-6.2,24.7-18.5c6.2-24.7,12.3-43.2,12.3-67.9C991.5,725.3,991.5,706.8,985.4,688.3z M855.7,817.9c-12.3,24.7-12.3,49.4,0,80.3c-12.3,6.2-24.7,18.5-37,24.7c-12.3-12.3-30.9-30.9-67.9-30.9c-30.9,0-49.4,12.3-67.9,30.9c-12.3-6.2-30.9-12.3-37-24.7c12.3-24.7,6.2-55.6-6.2-80.3c-18.5-24.7-43.2-30.9-61.7-37c0-12.3,0-18.5,0-30.9c0-6.2,0-12.3,0-18.5c24.7-6.2,43.2-12.3,61.7-43.2c18.5-30.9,12.3-61.7,0-80.3c12.3-12.3,30.9-24.7,49.4-30.9c12.3,18.5,30.9,30.9,67.9,30.9c30.9,0,49.4-18.5,61.7-37c18.5,6.2,37,18.5,49.4,30.9c-6.2,18.5-12.3,43.2,6.2,74.1c12.3,24.7,30.9,37,61.7,43.2c0,6.2,6.2,18.5,6.2,24.7c0,12.3,0,18.5,0,30.9C905.1,780.9,874.3,787.1,855.7,817.9z"/></g>
</svg>