<?xml version="1.0" encoding="UTF-8" standalone="no"?><svg viewBox="0 0 2000 2000" xmlns="http://www.w3.org/2000/svg" xmlns:xlink="http://www.w3.org/1999/xlink"><style>:root>svg{display:none}:root>svg:target{display:block}</style><svg fill="none" viewBox="0 0 64 64" id="about_me--developer" xmlns="http://www.w3.org/2000/svg"><path d="M42 25a1 1 0 100-2 1 1 0 000 2zM32 25a1 1 0 100-2 1 1 0 000 2zM51 50a1 1 0 00-1 1v10a1 1 0 002 0V51a1 1 0 00-1-1z" fill="#231F20"/><path d="M53 36H43v-1.79A11.05 11.05 0 0047.81 27H49a3 3 0 003-3v-.49A15.87 15.87 0 0053 18a15.64 15.64 0 00-.47-3.77A6.49 6.49 0 1044.79 4 15.81 15.81 0 0037 2a16 16 0 00-15 21.51V24a3 3 0 003 3h1.19A11.05 11.05 0 0031 34.21V36H21a9 9 0 00-5.94 2.25 1 1 0 00-.06 1.41.999.999 0 001.41.09A6.93 6.93 0 0121 38h10.09a6 6 0 0011.82 0H53a7 7 0 017 7v16a1 1 0 002 0V45a9 9 0 00-9-9zm-10-9a3 3 0 110-6 3 3 0 010 6zm7-3a1 1 0 01-1 1h-1v-4h1a1 1 0 011 1v2zm-.5-20a4.48 4.48 0 012.42 8.27 16 16 0 00-5.42-7.11 4.47 4.47 0 013-1.16zM37 4a14 14 0 0114 14 13.546 13.546 0 01-.12 1.68A2.94 2.94 0 0049 19h-1v-2.54a1 1 0 10-2 0V20a4.92 4.92 0 00-3-1 5 5 0 00-4.75 3.51l-.8-.4a1 1 0 00-.9 0l-.8.4A5 5 0 0031 19a4.92 4.92 0 00-3 1v-1.68a7 7 0 009-2.72 7 7 0 006 3.4 1 1 0 000-2 5 5 0 01-5-5 1 1 0 10-2 0 5 5 0 01-8.33 3.72 1 1 0 00-1.67.74V19h-1a2.94 2.94 0 00-1.88.68A13.566 13.566 0 0123 18 14 14 0 0137 4zm-3 20a3 3 0 11-5.999 0A3 3 0 0134 24zm-9 1a1 1 0 01-1-1v-2a1 1 0 011-1h1v4h-1zm3.67 3.4a4.94 4.94 0 007.26-3.75l1.07-.53 1.07.53a4.94 4.94 0 007.26 3.75 9 9 0 01-16.66 0zM37 41a4 4 0 01-4-4v-1.76a10.91 10.91 0 008 0V37a4 4 0 01-4 4z" fill="#231F20"/><path d="M26 56h-1V45a3 3 0 00-3-3H6a3 3 0 00-3 3v11H2a1 1 0 000 2h23v1a1 1 0 01-1 1H4a1 1 0 000 2h20a3 3 0 003-3v-2a1 1 0 00-1-1zM5 56V45a1 1 0 011-1h16a1 1 0 011 1v11H5z" fill="#231F20"/><path d="M14 47a3 3 0 100 5.999A3 3 0 0014 47zm0 4a1 1 0 110-2 1 1 0 010 2zM3 33h14a1 1 0 001-1v-2a1 1 0 00-2 0v1H4V21h12v5a1 1 0 002 0V16a1 1 0 00-1-1h-3.61l.07-.05 4.25-4.24a1.004 1.004 0 10-1.42-1.42l-3.53 3.54-1.42-1.42a1 1 0 10-1.41 1.42L12.05 15l.08.05H3a1 1 0 00-1 1V32a1 1 0 001 1zm13-14H8v-2h8v2zM4 17h2v2H4v-2z" fill="#231F20"/><path d="M14 24a1 1 0 00-1-1H7a1 1 0 000 2h6a1 1 0 001-1zM7 27a1 1 0 000 2h4a1 1 0 000-2H7zM36 56h-4a3 3 0 00-3 3v2a1 1 0 001 1h8a1 1 0 001-1v-2a3 3 0 00-3-3zm1 4h-6v-1a1 1 0 011-1h4a1 1 0 011 1v1zM31 52a1 1 0 00.55-1.83L29.8 49l1.75-1.17a1 1 0 10-1.1-1.66l-3 2a1 1 0 000 1.66l3 2A.94.94 0 0031 52zM34.5 52a1 1 0 001-.76l1-4a1 1 0 10-1.94-.48l-1 4a1.001 1.001 0 00.7 1.24c.08.01.16.01.24 0zM42.55 48.17l-3-2a1 1 0 00-1.1 1.66L40.2 49l-1.75 1.17A1 1 0 0039 52a.94.94 0 00.55-.17l3-2a1 1 0 000-1.66z" fill="#231F20"/></svg><svg fill="none" viewBox="0 0 14 25" id="about_me--mobile_dev" xmlns="http://www.w3.org/2000/svg"><path d="M11.719 0H1.563A1.565 1.565 0 000 1.563v21.093a1.565 1.565 0 001.563 1.563h10.156a1.565 1.565 0 001.562-1.563V1.563A1.564 1.564 0 0011.72 0zm-3.25.781l-.22.781H4.993l-.196-.78H8.47zM12.5 22.656a.783.783 0 01-.781.782H1.563a.783.783 0 01-.782-.782V1.563A.782.782 0 011.562.78h2.43l.317 1.267a.39.39 0 00.378.296h3.858a.39.39 0 00.376-.285L9.28.781h2.438a.782.782 0 01.781.781v21.094z" fill="#000"/><path d="M4.688 21.875H1.953a.39.39 0 000 .781h2.734a.39.39 0 100-.781zM6.25 21.875h-.39a.39.39 0 000 .781h.39a.39.39 0 100-.781zM8.013 9.821a.39.39 0 00-.535.134l-2.344 3.906a.39.39 0 10.67.402l2.343-3.906a.391.391 0 00-.134-.536zM9.29 9.912a.39.39 0 00-.61.488l1.367 1.71-1.368 1.708a.39.39 0 00.61.489l1.563-1.954a.391.391 0 000-.488L9.289 9.912zM3.992 14.307a.391.391 0 00.61-.489L3.235 12.11 4.602 10.4a.39.39 0 10-.61-.488l-1.563 1.953a.39.39 0 000 .489l1.563 1.953z" fill="#000"/></svg><svg viewBox="0 0 50 50" id="about_me--programmer" xmlns="http://www.w3.org/2000/svg"><path d="M48.882 22.585l-4.271-1.412a19.78 19.78 0 00-.714-2.673l2.999-3.363-.293-.603a24.182 24.182 0 00-1.746-3.017l-.376-.553-4.391.914a20.32 20.32 0 00-1.968-1.969l.913-4.391-.553-.376a24.055 24.055 0 00-3.019-1.746l-.602-.291L31.5 6.104a19.939 19.939 0 00-2.673-.714l-1.412-4.271-.667-.049a24.282 24.282 0 00-3.496 0l-.667.048-1.412 4.272c-.906.176-1.802.415-2.673.714l-3.363-2.999-.603.293a24.182 24.182 0 00-3.017 1.746l-.552.376.914 4.391a20.32 20.32 0 00-1.969 1.968l-4.39-.914-.376.553a24.055 24.055 0 00-1.746 3.019l-.291.602L6.104 18.5a19.939 19.939 0 00-.714 2.673l-4.271 1.412-.049.667C1.028 23.831 1 24.411 1 25s.028 1.169.07 1.748l.048.667 4.271 1.412c.176.909.415 1.804.714 2.673l-2.999 3.363.293.603a24.182 24.182 0 001.746 3.017l.376.553 4.391-.914a20.32 20.32 0 001.968 1.969l-.913 4.391.553.376a24.055 24.055 0 003.019 1.746l.602.291 3.362-2.997c.871.299 1.766.538 2.673.714l1.412 4.271.667.048c.578.041 1.158.069 1.747.069s1.169-.028 1.748-.07l.667-.048 1.412-4.271a19.78 19.78 0 002.673-.714l3.363 2.999.603-.293a24.182 24.182 0 003.017-1.746l.553-.376-.914-4.391a20.32 20.32 0 001.969-1.968l4.391.913.376-.553a24.055 24.055 0 001.746-3.019l.291-.602-2.999-3.361c.299-.871.538-1.767.714-2.673l4.271-1.412.048-.667c.043-.579.071-1.159.071-1.748s-.028-1.169-.07-1.748l-.048-.667zm-1.906 3.353l-4.135 1.367-.098.599a17.836 17.836 0 01-.925 3.463l-.214.566 2.898 3.252c-.287.55-.601 1.091-.936 1.617l-4.247-.884-.384.47a18.215 18.215 0 01-2.549 2.548l-.47.384.885 4.247c-.525.334-1.065.647-1.617.937l-3.252-2.9-.567.216c-1.11.421-2.275.731-3.462.924l-.599.098-1.367 4.135c-.621.031-1.256.031-1.877 0l-1.367-4.135-.599-.098a17.77 17.77 0 01-3.462-.925l-.567-.215-3.252 2.899a21.733 21.733 0 01-1.617-.936l.884-4.247-.47-.384a18.215 18.215 0 01-2.548-2.549l-.384-.47-4.247.885a22.569 22.569 0 01-.937-1.617l2.9-3.252-.216-.567a17.866 17.866 0 01-.924-3.462l-.098-.599-4.135-1.367a19.408 19.408 0 01.003-1.876l4.135-1.367.098-.599a17.77 17.77 0 01.925-3.462l.215-.567-2.899-3.252c.287-.55.601-1.091.936-1.617l4.247.884.384-.47a18.215 18.215 0 012.549-2.548l.47-.384-.885-4.247a22.569 22.569 0 011.617-.937l3.252 2.899.566-.214a17.907 17.907 0 013.463-.925l.599-.098 1.367-4.135a18.953 18.953 0 011.877 0l1.367 4.135.599.098a17.77 17.77 0 013.462.925l.567.215 3.252-2.899c.55.287 1.091.601 1.617.936l-.884 4.247.47.384c.928.76 1.785 1.617 2.548 2.549l.384.47 4.247-.885c.334.525.647 1.065.937 1.617l-2.9 3.252.216.567c.421 1.11.731 2.275.924 3.462l.098.599 4.135 1.367a19.408 19.408 0 01-.003 1.876z"/><path d="M24.709 11.004c-5.189.147-9.542 4.488-9.703 9.677a9.95 9.95 0 003.448 7.869C20.072 29.95 21 31.911 21 34v5h3v2h2v-2h3v-5.068c0-2 .947-3.979 2.599-5.428A9.986 9.986 0 0035 21a9.92 9.92 0 00-3.031-7.172c-1.954-1.899-4.54-2.873-7.26-2.824zM27 37h-4v-2h4v2zm3.28-10c-1.82 1.598-2.963 3.726-3.223 6H26v-9.586l2.707-2.707-1.414-1.414L25 21.586l-2.293-2.293-1.414 1.414L24 23.414V33h-1.05c-.245-2.261-1.376-4.395-3.188-5.962a7.962 7.962 0 01-2.758-6.295c.129-4.15 3.61-7.622 7.761-7.739 2.188-.075 4.246.738 5.81 2.258A7.936 7.936 0 0133 21a7.984 7.984 0 01-2.72 6z"/></svg><svg fill="none" viewBox="0 0 25 24" id="about_me--web_development" xmlns="http://www.w3.org/2000/svg"><path d="M0 0v20.52h8.024v1.468H6.557v1.465h11.885v-1.465h-1.466V20.52H25V0H0zm15.511 21.988H9.489V20.52h6.022v1.468zm8.024-2.932H1.465v-2.934h22.07v2.934zm0-4.399H1.465V1.465h22.07v13.192z" fill="#000"/><path d="M9.958 5.413L8.922 4.378 5.24 8.06l3.683 3.684 1.036-1.036L7.31 8.06l2.648-2.648zM16.078 4.378l-1.036 1.035 2.648 2.648-2.648 2.648 1.036 1.036L19.76 8.06l-3.683-3.683zM12.632 3.644l-1.7 8.55 1.436.285 1.7-8.55-1.436-.285z" fill="#000"/></svg><svg data-name="Layer 1" viewBox="0 0 24 24" id="btn--up" xmlns="http://www.w3.org/2000/svg"><path d="M17.71 11.29l-5-5a1 1 0 00-.33-.21 1 1 0 00-.76 0 1 1 0 00-.33.21l-5 5a1 1 0 001.42 1.42L11 9.41V17a1 1 0 002 0V9.41l3.29 3.3a1 1 0 001.42 0 1 1 0 000-1.42z"/></svg><svg fill="none" viewBox="0 0 25 25" id="experience--developer" xmlns="http://www.w3.org/2000/svg"><path d="M22.5 3.75H11.25v.833H22.5V3.75zM18.333 5.417H11.25v.833h7.083v-.833zM18.333 7.083H11.25v.834h7.083v-.834zM22.5 2.083h-7.917v.834H22.5v-.834zM13.75 2.083h-.833v.834h.833v-.834zM12.917 16.667h-.834v.833h.834v-.833zM6.961 2.795l-.589-.59-.833.834a.417.417 0 000 .589l.833.833.59-.589-.54-.539.54-.538zM10.295 3.039l-.834-.834-.589.59.539.538-.539.54.59.588.833-.833a.417.417 0 000-.59zM7.938 1.951l-.834 2.5.79.264.834-2.5-.79-.264zM21.667 12.917V9.583h-.834v3.334H20V8.75h-.833v4.167h-.834v-2.084H17.5v2.084h-.833v-2.5h-.834v2.5H15V11.25h-.833v1.667h-.834v.833H22.5v-.833h-.833z" fill="#000"/><path d="M22.083 0H2.917a2.502 2.502 0 00-2.5 2.5V16.667a2.503 2.503 0 002.5 2.5h5.159L6.409 22.5H4.167a1.25 1.25 0 100 2.5h16.666a1.25 1.25 0 000-2.5h-2.242l-1.667-3.333h5.16a2.503 2.503 0 002.5-2.5V2.5a2.503 2.503 0 00-2.5-2.5zM1.25 5.862l.947 1.128c.08.094.196.149.32.149h1.275c.123 0 .24-.055.319-.149l.947-1.128.935.304.104 1.468c.008.123.07.236.17.308l1.032.75c.1.072.226.097.346.067l1.43-.355.579.795-.78 1.25a.416.416 0 00-.04.35l.394 1.213a.417.417 0 00.24.257l1.365.554v.983l-1.366.554a.414.414 0 00-.24.258L9.102 15h-2.4A3.923 3.923 0 001.25 9.884V5.862zm0 5.013A3.095 3.095 0 015.75 15h-4.5v-4.125zm19.583 12.458a.417.417 0 010 .834H4.167a.417.417 0 010-.834h16.666zM17.66 22.5H7.341l1.667-3.333h6.985l1.666 3.333zm6.091-5.833c0 .92-.746 1.666-1.667 1.666H2.917c-.92 0-1.667-.746-1.667-1.666v-.834h22.5v.834zm0-1.667H10.106l1.3-.527a.417.417 0 00.26-.386v-1.545a.417.417 0 00-.26-.387l-1.448-.585-.274-.844.826-1.325a.417.417 0 00-.017-.465l-.908-1.25a.417.417 0 00-.437-.16l-1.515.375-.716-.52-.11-1.554a.417.417 0 00-.287-.367l-1.469-.478a.42.42 0 00-.448.13L3.6 6.304h-.888L1.708 5.111a.42.42 0 00-.448-.128l-.01.003V2.5c0-.92.746-1.667 1.667-1.667h19.166c.92 0 1.667.747 1.667 1.667V15z" fill="#000"/></svg><svg fill="none" viewBox="0 0 48 48" id="experience--english" xmlns="http://www.w3.org/2000/svg"><path d="M45 33h-1V12a5.006 5.006 0 00-5-5H9a5.006 5.006 0 00-5 5v21H3a2 2 0 00-2 2 6.006 6.006 0 006 6h34a6.006 6.006 0 006-6 2 2 0 00-2-2zM6 12a3 3 0 013-3h30a3 3 0 013 3v21H6V12zm35 27H7a4 4 0 01-4-4h42a4 4 0 01-4 4z" fill="#000"/><path d="M32.905 12.021A25.8 25.8 0 0024 13.9a25.798 25.798 0 00-8.9-1.881 2.006 2.006 0 00-2.1 2v12a2 2 0 001.945 2c2.964.069 5.887.706 8.61 1.877a1 1 0 00.892 0 22.92 22.92 0 018.609-1.877 2 2 0 001.944-2v-12a1.982 1.982 0 00-.612-1.438 1.959 1.959 0 00-1.483-.56zm-17.888 2c2.734.09 5.433.643 7.983 1.633v11.86a26.659 26.659 0 00-8-1.5l.017-11.993zm17.965 12c-2.721.086-5.413.59-7.982 1.493V15.653a24.17 24.17 0 018-1.632l-.018 12z" fill="#000"/><path d="M16.892 19.164c1.298.14 2.583.385 3.842.73a1 1 0 10.532-1.928 26.525 26.525 0 00-4.158-.79 1 1 0 10-.216 1.988zM27 19.931c.09 0 .18-.012.267-.037 1.26-.345 2.544-.59 3.842-.73a1 1 0 00-.216-1.988 26.528 26.528 0 00-4.158.79A1 1 0 0027 19.931zM21.266 21.966a26.525 26.525 0 00-4.158-.79 1 1 0 10-.216 1.988c1.298.14 2.583.385 3.842.73a1 1 0 10.532-1.928zM30.892 21.176a26.525 26.525 0 00-4.158.79 1 1 0 10.533 1.928c1.26-.345 2.544-.59 3.842-.73a1 1 0 00-.216-1.988h-.001z" fill="#000"/></svg><svg fill="none" viewBox="0 0 25 25" id="experience--goit" xmlns="http://www.w3.org/2000/svg"><path d="M20.265 19.146l-.65.433 1.53 2.296H3.855l1.823-2.734h9.924v-.782H5.47a.39.39 0 00-.325.174L2.8 22.05a.393.393 0 00-.066.217v1.172a.781.781 0 00.782.78h17.968a.781.781 0 00.782-.78v-1.172a.393.393 0 00-.066-.217l-1.935-2.903zm-16.75 4.291v-.78h17.97v.78H3.514zM20.313.781H4.688a1.175 1.175 0 00-1.172 1.172V12.11a1.175 1.175 0 001.171 1.172h5.47v1.563H8.593a.39.39 0 00-.39.39v1.563a.39.39 0 00.39.39h7.812a.391.391 0 00.39-.39v-1.563a.39.39 0 00-.39-.39h-1.562V13.28h5.469a1.175 1.175 0 001.171-1.172V1.953A1.176 1.176 0 0020.312.781zm-4.297 14.844v.781H8.984v-.781h7.032zm-5.078-.781V13.28h3.124v1.563h-3.124zm9.765-2.735a.39.39 0 01-.39.391H4.688a.39.39 0 01-.391-.39v-1.172h16.406v1.171zm0-1.953H4.297V1.953a.39.39 0 01.39-.39h15.625a.39.39 0 01.391.39v8.203z" fill="#000"/><path d="M18.36 11.328h.78v.781h-.78v-.78zM8.984 9.375h1.563a.39.39 0 00.39-.39v-.391h3.126v.39a.39.39 0 00.39.391h1.563a.39.39 0 00.39-.39V7.421a.39.39 0 00-.39-.39h-.391V4.686h.39a.39.39 0 00.391-.39V2.734a.39.39 0 00-.39-.39h-1.563a.39.39 0 00-.39.39v.391h-3.126v-.39a.39.39 0 00-.39-.391H8.984a.39.39 0 00-.39.39v1.563a.39.39 0 00.39.39h.391v2.344h-.39a.39.39 0 00-.391.39v1.563a.39.39 0 00.39.391zm6.641-.781h-.781v-.781h.781v.78zm-.781-5.469h.781v.781h-.781v-.781zm-5.469 0h.781v.781h-.781v-.781zm.781 1.563h.39a.39.39 0 00.392-.391v-.39h3.124v.39a.39.39 0 00.391.39h.39v2.344h-.39a.39.39 0 00-.39.39v.391h-3.126v-.39a.39.39 0 00-.39-.39h-.39V4.686zm-.781 3.125h.781v.78h-.781v-.78zM8.984 20.313h5.47v.78h-5.47v-.78zM23.387 14.39l-1.106-1.105a.386.386 0 00-.277-.113.38.38 0 00-.274.113l-5.25 5.25a.384.384 0 00-.093.152l-.278.829a.395.395 0 00.094.398l-.55.555.55.55.555-.55a.386.386 0 00.398.093l.828-.277a.384.384 0 00.153-.094l5.25-5.25a.39.39 0 000-.55zm-5.735 5.184l-.511.168-.215-.21.172-.512 3.8-3.801.555.55-3.8 3.805zm4.352-4.355l-.55-.551.55-.555.555.555-.555.55z" fill="#000"/></svg><svg version="1.1" id="experience--programmer" x="0" y="0" viewBox="0 0 102.74 122.88" xml:space="preserve" xmlns="http://www.w3.org/2000/svg"><style>.aist0{fill-rule:evenodd;clip-rule:evenodd}</style><path class="aist0" d="M31.25 37.01c-1.12.04-1.96.27-2.54.66-.33.22-.57.5-.73.84-.17.37-.25.83-.24 1.35.04 1.53.85 3.53 2.4 5.83l.02.03 5.03 8c2.02 3.21 4.13 6.48 6.76 8.88 2.53 2.31 5.59 3.87 9.65 3.88 4.39.01 7.6-1.61 10.21-4.05 2.71-2.54 4.85-6.02 6.96-9.49l5.67-9.33c1.06-2.41 1.44-4.02 1.2-4.97-.14-.56-.76-.84-1.82-.89-.22-.01-.46-.01-.69-.01-.25.01-.52.02-.79.05-.15.01-.3 0-.44-.03-.5.03-1.02-.01-1.55-.08l1.94-8.59c-14.4 2.27-25.17-8.42-40.39-2.14L33 37.07c-.64.04-1.22.02-1.75-.06zm36.82 67.77v4.83l-9.93 5.63v-5.63l6.39-2.43-6.39-2.4v-5.63l9.93 5.63zm-17.2 12.05h-4.23l5.22-20.34h4.23l-5.22 20.34zm-7.06-12.05l-6.39 2.4 6.39 2.43v5.63l-9.93-5.63v-4.83l9.93-5.63v5.63zM75.73 35.2c.21-8.77 1.82-17.63-4.42-24.82C66.86 5.25 55.28.42 47.77.01c-3.17-.17-1.96 2.41-5.09 3.49-6.46 2.23-12.11 6.97-13.96 13.55-.3 1.08-.51 2.17-.62 3.26-.21 4.58-.09 10.04.24 14.38-.45.17-.86.38-1.22.62-.78.52-1.35 1.2-1.73 2.01-.36.77-.52 1.65-.49 2.62.06 2.06 1.01 4.56 2.85 7.31l5.03 8c1.76 2.8 3.6 5.65 5.84 8.06-.11.32.01-.03-.06.18-.62 1.88-1.66 5.02-2.59 6.78-6.11 4-20.1 5.03-25.53 8.06C-4.38 86.59.97 103.62.79 117.69c.29 3.14 2.07 4.94 5.57 5.21h3.79L6 91.4c-.32-2.45 1.42-4.46 3.56-4.46h42.45c-.79-5.1-13.98-10.02-14.45-13.86.13-.09.25-.21.35-.35 1.12-1.56 2.28-4.81 3.08-7.18 2.83 2.29 6.23 3.79 10.6 3.8 3.92.01 7.05-1.08 9.68-2.85.26.37.52.76.8 1.17 1.25 1.84 2.71 3.97 4.07 5.49-.29 4.37-11.73 4.42-13.03 13.78h40.74c2.14 0 3.89 2.01 3.56 4.46l-4.15 31.5h3.79c3.5-.27 5.28-2.07 5.58-5.21-.99-13.29 3.99-31.76-9.65-39.36-5.36-2.99-19.06-4.03-25.29-7.9-1.05-1.3-2.18-2.96-3.18-4.42-.32-.48-.63-.93-.92-1.34l.15-.13c2.99-2.8 5.24-6.45 7.45-10.09l5.73-9.44c.03-.05.06-.11.09-.16 1.34-3.05 1.78-5.29 1.38-6.87-.37-1.47-1.26-2.35-2.66-2.78z"/></svg><svg fill="none" viewBox="0 0 25 24" id="experience--udemy" xmlns="http://www.w3.org/2000/svg"><path d="M2.93 14.954l-1.865-.411C.52 15.645 0 16.883 0 18.31c0 1.4.498 2.623 1.065 3.767l6.308-1.391v2.744l2.197-1.099 2.198 1.1v-2.744l6.258 1.391c.543-1.094 1.066-2.335 1.066-3.768 0-.247-.018-.493-.05-.733H25V0H2.93v14.954zm-1.03 5.44c-.19-.504-.435-1.304-.435-2.083 0-.78.245-1.58.436-2.084l5.472 1.207v1.753l-5.472 1.207zm8.403.667l-.733-.366-.732.366v-3.483h1.465v3.483zm6.888-.668l-5.423-1.205v-1.755l5.423-1.205c.19.504.436 1.304.436 2.082 0 .78-.245 1.58-.436 2.083zm6.344-18.928v14.648h-4.831c-.24-.734-.434-1.081-.678-1.571l-7.071 1.571h-2.77l-3.79-.836V1.465h19.14z" fill="#000"/><path d="M8.838 2.93h10.254v1.465H8.838V2.93zM5.86 8.79h16.21v1.464H5.86V8.789zM8.838 11.719h10.254v1.465H8.838v-1.465zM10.303 5.86h1.465v1.464h-1.465V5.86zM13.232 5.86h1.465v1.464h-1.465V5.86zM16.162 5.86h1.465v1.464h-1.465V5.86z" fill="#000"/></svg><svg fill="none" viewBox="0 0 21 25" id="experience--university" xmlns="http://www.w3.org/2000/svg"><path d="M17.717 16.333l-1.467-.43-3.193-2.086v-.478a4.248 4.248 0 001.677-2.984.976.976 0 00.819-.961V8.08 6.401a.722.722 0 00.301-.59V4.29l2.203-.376a.77.77 0 00.648-.715.77.77 0 00-.542-.799L10.736.037a.777.777 0 00-.474 0L2.836 2.399a.77.77 0 00-.543.799.771.771 0 00.3.565v1.991h-.019a.76.76 0 00-.758.759V7.5l-.49 2.874a.815.815 0 00.804.952h1.658a.815.815 0 00.803-.952L4.101 7.5v-.988a.76.76 0 00-.758-.759h-.018V3.98l1.82.31V5.81c0 .241.118.456.301.589l.001 1.68v1.314c0 .484.355.887.819.961a4.25 4.25 0 001.675 2.983v.48l-3.192 2.085-1.466.43a3.724 3.724 0 00-2.676 3.575V21a.366.366 0 00.732 0v-1.092c0-1.32.885-2.5 2.15-2.872l1.367-.401 5.457 3.243a.37.37 0 00.374 0l5.458-3.243 1.366.4a3.01 3.01 0 012.15 2.873v3.537c0 .454-.37.823-.823.823h-1.614v-1.579a.366.366 0 10-.732 0v1.579H4.507v-1.579a.366.366 0 10-.733 0v1.579H2.162a.824.824 0 01-.823-.823v-.734a.366.366 0 00-.732 0v.734c0 .857.697 1.555 1.555 1.555h16.676c.858 0 1.555-.698 1.555-1.555v-3.537a3.724 3.724 0 00-2.676-3.575zm-13.93-5.739H2.13a.083.083 0 01-.082-.096l.443-2.6h.935l.443 2.6a.083.083 0 01-.082.096zM3.37 6.513v.653h-.82v-.653c0-.015.01-.027.025-.027h.769c.014 0 .026.012.026.027zM9.19 18.22l.146.224-3.739-2.221 2.373-1.55a7.692 7.692 0 001.22 3.547zm-.002-1.58a9.414 9.414 0 002.624 0c-.166.41-.372.805-.616 1.18l-.696 1.07-.696-1.07a6.994 6.994 0 01-.616-1.18zm2.622 1.58a7.69 7.69 0 001.22-3.547l2.373 1.55-3.739 2.221.146-.224zm2.142-11.684h.868v1.177h-.431a.438.438 0 01-.437-.437v-.74zM3.058 3.097L10.485.735a.048.048 0 01.029 0l7.427 2.362c.015.005.036.012.034.05-.003.038-.025.042-.04.044l-2.456.418-.922-.114a.366.366 0 00-.09.727l.655.081v1.502H5.878V4.302l3.79-.469a6.783 6.783 0 011.663 0l1.434.178a.366.366 0 00.09-.727l-1.434-.177a7.513 7.513 0 00-1.843 0L5.52 3.61 3.064 3.19c-.016-.002-.037-.006-.04-.044-.003-.038.018-.045.034-.05zm3.121 4.617V6.537h.87v.74a.438.438 0 01-.438.437h-.432zm.806 2.453a.567.567 0 00-.564-.532.242.242 0 01-.242-.241v-.948h.432a1.17 1.17 0 001.17-1.17v-.739h5.438v.74c0 .644.525 1.17 1.17 1.17h.432v.947a.242.242 0 01-.242.241.567.567 0 00-.564.532 3.527 3.527 0 01-3.515 3.298 3.527 3.527 0 01-3.515-3.298zm3.515 4.03c.651 0 1.27-.149 1.825-.414v.232c0 .627-.084 1.244-.247 1.84-.995.19-2.12.197-3.156 0a6.978 6.978 0 01-.247-1.84l-.002-.023v-.209a4.228 4.228 0 001.827.414z" fill="#000"/></svg><svg viewBox="0 0 100 100" id="experience--working" xmlns="http://www.w3.org/2000/svg"><g fill="none" fill-rule="evenodd" stroke-linecap="round" stroke-linejoin="round" stroke="#222F3E" stroke-width="4"><path d="M34.157 35.1c-.7.432-2.018 3.137-1.422 5.51.887 3.53 4.042 4.907 4.042 4.907s4.936 6.517 4.936 10.307 0 5.263-1.323 8.425C39.068 67.41 13.102 71.2 12 89.842h37.793L88 89.846c-1.102-18.64-27.068-22.431-28.39-25.593-1.323-3.162-1.323-4.635-1.323-8.425 0-3.79 4.936-10.307 4.936-10.307s3.155-1.378 4.042-4.907c.596-2.373-.722-5.078-1.422-5.509C67.713 29.397 71.45 9.72 50.207 9.01a1.646 1.646 0 00-.281-.008c-21.376.714-17.64 20.391-15.77 26.099z"/><path d="M2 77.422c6.236-4.372 14.011-6.069 14.645-7.583 1.047-2.504 1.047-3.67 1.047-6.67s-3.908-8.16-3.908-8.16-2.497-1.09-3.2-3.884c-.472-1.878.572-4.02 1.126-4.36-1.48-4.52-4.439-20.096 12.483-20.661.074-.002.148-.004.223.006 3.65.122 6.368.951 8.372 2.22.26 2.822.879 5.276 1.369 6.77-.7.432-2.018 3.137-1.422 5.51.887 3.53 4.042 4.907 4.042 4.907s.103.136.28.38c-.09.322-.18.614-.263.87.554.342 1.597 2.483 1.125 4.362-.702 2.793-3.2 3.884-3.2 3.884s-3.907 5.16-3.907 8.16c0 2.501 0 3.727.607 5.516C23.353 72.196 12.698 78.045 12 89.842h37.793L88 89.846c-.71-12.017-11.755-17.863-19.868-21.347.56-1.714.56-2.94.56-5.375 0-3-3.908-8.16-3.908-8.16s-2.497-1.09-3.2-3.884c-.472-1.879.572-4.02 1.126-4.361-.035-.107-.07-.22-.107-.338.377-.54.62-.86.62-.86s3.155-1.378 4.042-4.907c.596-2.373-.722-5.078-1.422-5.509.51-1.555 1.158-4.147 1.402-7.11 1.966-1.108 4.558-1.824 7.948-1.937.074-.002.148-.004.223.007 16.816.561 13.859 16.138 12.378 20.657.554.341 1.597 2.482 1.125 4.36-.702 2.795-3.2 3.885-3.2 3.885s-3.907 5.16-3.907 8.16 0 4.166 1.047 6.67c.65 1.554 8.83 3.301 15.141 7.939v12.32l-22.912-.003H54.33c0 .017.002.033.003.05l-30.246-.004H2V77.422z"/></g></svg><svg viewBox="0 0 24 24" id="projects--link" xmlns="http://www.w3.org/2000/svg"><path d="M18 10.82a1 1 0 00-1 1V19a1 1 0 01-1 1H5a1 1 0 01-1-1V8a1 1 0 011-1h7.18a1 1 0 000-2H5a3 3 0 00-3 3v11a3 3 0 003 3h11a3 3 0 003-3v-7.18a1 1 0 00-1-1zm3.92-8.2a1 1 0 00-.54-.54A1 1 0 0021 2h-6a1 1 0 000 2h3.59L8.29 14.29a1 1 0 000 1.42 1 1 0 001.42 0L20 5.41V9a1 1 0 002 0V3a1 1 0 00-.08-.38z"/></svg><svg viewBox="0 0 256 212" preserveAspectRatio="xMinYMin meet" id="skills--bem" xmlns="http://www.w3.org/2000/svg"><path d="M0 32.692h59.85v17.603H0V32.692zM0 0h59.85v17.603H0V0zm107.38 65.132H0v17.603h103.356c11.316 0 37.72.251 47.528 16.094v-9.807c-4.778-15.592-18.86-23.89-43.505-23.89zm.25 32.691H0v17.603h103.356c25.147 0 40.99 1.006 47.528 4.527v-7.796c-5.03-12.322-26.153-14.334-43.253-14.334zm-.25 82.986H0v-17.603h103.356c11.316 0 37.72-.251 47.528-16.094v9.807c-4.778 15.592-18.86 23.89-43.505 23.89zm.25-32.691H0v-17.603h103.356c25.147 0 40.99-1.006 47.528-4.527v7.796c-5.03 12.322-26.153 14.334-43.253 14.334zm69.407 63.12H256v-10.814h-76.7c-6.79 0-22.883-.251-28.667-9.556v6.036c2.766 9.304 11.316 14.334 26.404 14.334zm-.251-19.867h78.963v-10.813H179.3c-15.34 0-24.896-.503-28.668-2.766v4.778c3.017 7.544 15.842 8.801 26.153 8.801z" fill="#010101"/></svg><svg viewBox="0 0 48 48" id="skills--bootstrap" xmlns="http://www.w3.org/2000/svg"><path fill="#673ab7" d="M42 37a5 5 0 01-5 5H11a5 5 0 01-5-5V11a5 5 0 015-5h26a5 5 0 015 5v26z"/><path fill="#fff" d="M33.03 25.6c-.65-.9-1.59-1.52-2.8-1.85 0 0 1.02-.37 1.94-1.75.55-.88.83-1.94.83-3.18 0-2.15-.78-3.8-2.34-4.93C29.1 12.76 27.34 12 24.35 12H15v24h10.43c2.83-.02 4.96-.63 6.41-1.8 1.44-1.19 2.16-2.95 2.16-5.3 0-1.3-.32-2.4-.97-3.3zM21 16h4.25c1.52 0 2.75 1.23 2.75 2.75s-1.23 2.75-2.75 2.75H21V16zm5 16h-5v-6h5c1.66 0 3 1.34 3 3s-1.34 3-3 3z"/></svg><svg viewBox="0 0 48 48" id="skills--css3" xmlns="http://www.w3.org/2000/svg"><path fill="#0277BD" d="M41 5H7l3 34 14 4 14-4 3-34z"/><path fill="#039BE5" d="M24 8v31.9l11.2-3.2L37.7 8z"/><path fill="#FFF" d="M33.1 13H24v4h4.9l-.3 4H24v4h4.4l-.3 4.5-4.1 1.4v4.2l7.9-2.6.7-11.5z"/><path fill="#EEE" d="M24 13v4h-8.9l-.3-4H24zm-4.6 8l.2 4H24v-4h-4.6zm.4 6h-4l.3 5.5 7.9 2.6v-4.2l-4.1-1.4-.1-2.5z"/></svg><svg viewBox="0 0 25 25" id="skills--figma" xmlns="http://www.w3.org/2000/svg"><g data-name="Layer 2"><g data-name="Layer 1 copy"><g data-name="Figma icon"><g data-name="ads manager"><rect width="13.72" height="13.72" x="5.64" y="5.64" fill="#525967" rx="2" ry="2"/><path fill="#454b57" d="M17.36 6.24a1.4 1.4 0 011.4 1.4v9.72a1.4 1.4 0 01-1.4 1.4H7.64a1.4 1.4 0 01-1.4-1.4V7.64a1.4 1.4 0 011.4-1.4h9.72m0-.6H7.64a2 2 0 00-2 2v9.72a2 2 0 002 2h9.72a2 2 0 002-2V7.64a2 2 0 00-2-2z"/><path fill="#0acf83" d="M10.79 17.63a1.71 1.71 0 001.71-1.71v-1.71h-1.71a1.71 1.71 0 100 3.42z" data-name="path0 fill"/><path fill="#a259ff" d="M9.08 12.5a1.71 1.71 0 011.71-1.71h1.71v3.42h-1.71a1.71 1.71 0 01-1.71-1.71z" data-name="path1 fill"/><path fill="#f24e1e" d="M9.08 9.08a1.71 1.71 0 011.71-1.71h1.71v3.42h-1.71a1.71 1.71 0 01-1.71-1.71z" data-name="path1 fill"/><path fill="#ff7262" d="M12.5 7.38h1.71a1.71 1.71 0 110 3.42H12.5z" data-name="path2 fill"/><path fill="#1abcfe" d="M15.92 12.5a1.71 1.71 0 11-1.71-1.71 1.71 1.71 0 011.71 1.71z" data-name="path3 fill"/></g><path fill="none" d="M0 0h25v25H0z"/></g></g></g></svg><svg viewBox="0 0 48 48" id="skills--git" xmlns="http://www.w3.org/2000/svg"><path fill="#F4511E" d="M42.2 22.1L25.9 5.8c-.5-.5-1.2-.8-1.9-.8s-1.4.3-1.9.8l-3.5 3.5 4.1 4.1c.4-.2.8-.3 1.3-.3 1.7 0 3 1.3 3 3 0 .5-.1.9-.3 1.3l4 4c.4-.2.8-.3 1.3-.3 1.7 0 3 1.3 3 3s-1.3 3-3 3-3-1.3-3-3c0-.5.1-.9.3-1.3l-4-4c-.1 0-.2.1-.3.1v10.4c1.2.4 2 1.5 2 2.8 0 1.7-1.3 3-3 3s-3-1.3-3-3c0-1.3.8-2.4 2-2.8V18.8c-1.2-.4-2-1.5-2-2.8 0-.5.1-.9.3-1.3l-4.1-4.1L5.8 22.1c-.5.5-.8 1.2-.8 1.9s.3 1.4.8 1.9l16.3 16.3c.5.5 1.2.8 1.9.8s1.4-.3 1.9-.8l16.3-16.3c.5-.5.8-1.2.8-1.9s-.3-1.4-.8-1.9z"/></svg><svg viewBox="0 0 272 92" id="skills--google" xmlns="http://www.w3.org/2000/svg"><path fill="#EA4335" d="M115.75 47.18c0 12.77-9.99 22.18-22.25 22.18s-22.25-9.41-22.25-22.18C71.25 34.32 81.24 25 93.5 25s22.25 9.32 22.25 22.18zm-9.74 0c0-7.98-5.79-13.44-12.51-13.44S80.99 39.2 80.99 47.18c0 7.9 5.79 13.44 12.51 13.44s12.51-5.55 12.51-13.44z"/><path fill="#FBBC05" d="M163.75 47.18c0 12.77-9.99 22.18-22.25 22.18s-22.25-9.41-22.25-22.18c0-12.85 9.99-22.18 22.25-22.18s22.25 9.32 22.25 22.18zm-9.74 0c0-7.98-5.79-13.44-12.51-13.44s-12.51 5.46-12.51 13.44c0 7.9 5.79 13.44 12.51 13.44s12.51-5.55 12.51-13.44z"/><path fill="#4285F4" d="M209.75 26.34v39.82c0 16.38-9.66 23.07-21.08 23.07-10.75 0-17.22-7.19-19.66-13.07l8.48-3.53c1.51 3.61 5.21 7.87 11.17 7.87 7.31 0 11.84-4.51 11.84-13v-3.19h-.34c-2.18 2.69-6.38 5.04-11.68 5.04-11.09 0-21.25-9.66-21.25-22.09 0-12.52 10.16-22.26 21.25-22.26 5.29 0 9.49 2.35 11.68 4.96h.34v-3.61h9.25zm-8.56 20.92c0-7.81-5.21-13.52-11.84-13.52-6.72 0-12.35 5.71-12.35 13.52 0 7.73 5.63 13.36 12.35 13.36 6.63 0 11.84-5.63 11.84-13.36z"/><path fill="#34A853" d="M225 3v65h-9.5V3h9.5z"/><path fill="#EA4335" d="M262.02 54.48l7.56 5.04c-2.44 3.61-8.32 9.83-18.48 9.83-12.6 0-22.01-9.74-22.01-22.18 0-13.19 9.49-22.18 20.92-22.18 11.51 0 17.14 9.16 18.98 14.11l1.01 2.52-29.65 12.28c2.27 4.45 5.8 6.72 10.75 6.72 4.96 0 8.4-2.44 10.92-6.14zm-23.27-7.98l19.82-8.23c-1.09-2.77-4.37-4.7-8.23-4.7-4.95 0-11.84 4.37-11.59 12.93z"/><path fill="#4285F4" d="M35.29 41.41V32H67c.31 1.64.47 3.58.47 5.68 0 7.06-1.93 15.79-8.15 22.01-6.05 6.3-13.78 9.66-24.02 9.66C16.32 69.35.36 53.89.36 34.91.36 15.93 16.32.47 35.3.47c10.5 0 17.98 4.12 23.6 9.49l-6.64 6.64c-4.03-3.78-9.49-6.72-16.97-6.72-13.86 0-24.7 11.17-24.7 25.03 0 13.86 10.84 25.03 24.7 25.03 8.99 0 14.11-3.61 17.39-6.89 2.66-2.66 4.41-6.46 5.1-11.65l-22.49.01z"/></svg><svg viewBox="0 0 24 24" id="skills--gulp" xmlns="http://www.w3.org/2000/svg"><path fill="#CF4547" d="M6.396 12.242c-.572.834-1.055 5.142-2.01 5.142-.958 0 .14-2.734.445-3.677-3.592 4.006-6.04 1.824-4.184-3.275C2.091 6.461 5.73 2.637 8.01 6.065c.31.453.188 1.339-.377 1.339-.65 0-.686-1.496-1.727-1.496-2.035 0-5.122 6.207-4.281 8.105.632 1.445 3.267-1.531 3.74-2.53.411-1.135.568-2.519 1.395-2.24.783.268-.097 2.22-.364 2.999zm7.922 1.459c-1.363 1.832-4.066 3.18-3.424.282-.991 1.762-3.575 2.446-3.575.581.215-1.372.8-2.714 1.401-3.966.262-.563.723-.632 1.036-.421.613.419-.516 1.346-1.018 3.148-.068.244-.168.683-.044.905.147.26.728.031.986-.156 1.514-1.091 1.892-3.33 2.332-3.847a.452.452 0 01.704.007c.296.385.067.794-.446 1.957-.261.593-.947 2.285-.302 2.285.721 0 1.845-1.1 2.287-1.786l.063 1.011z"/><path fill="#CF4547" d="M14.513 13.329c-.849 2.09 1.117.614 2.577-.863.255-.266.722.009.439.633-.108.238-2.153 2.567-3.512 2.567-1.847 0-.364-3.108.27-4.702 1.691-4.17 2.018-5.935 2.95-5.202.498.391-.009.575-2.724 7.567z"/><path fill="#CF4547" d="M23.415 11.981c.725-.495.745.623.245 1.019-1.221 1.082-1.516 1.417-2.195 1.931-1.151.87-2.868 1.097-2.868-.041.023-1.026 2.149-2.726 2.149-3.386 0-.528-1.974-.458-4.077 5.072-.467 1.236-.96 3.269-1.926 2.575-.549-.402.459-2.038 1.577-4.576 1.041-2.353 1.494-4.973 2.321-4.13.2.204.064.843-.012 1.03 2.099-2.293 3.921-1.361 3.238.175-.389.875-1.114 1.643-1.791 2.441-.348.412-.053.594.393.339.593-.34 2.342-1.909 2.946-2.449z"/></svg><svg viewBox="0 0 48 48" id="skills--html5" xmlns="http://www.w3.org/2000/svg"><path fill="#E65100" d="M41 5H7l3 34 14 4 14-4 3-34z"/><path fill="#FF6D00" d="M24 8v31.9l11.2-3.2L37.7 8z"/><path fill="#FFF" d="M24 25v-4h8.6l-.7 11.5-7.9 2.6v-4.2l4.1-1.4.3-4.5H24zm8.9-8l.3-4H24v4h8.9z"/><path fill="#EEE" d="M24 30.9v4.2l-7.9-2.6-.4-5.5h4l.2 2.5 4.1 1.4zM19.1 17H24v-4h-9.1l.7 12H24v-4h-4.6l-.3-4z"/></svg><svg fill="none" viewBox="0 0 65 65" id="skills--js" xmlns="http://www.w3.org/2000/svg"><path d="M0 0h65v65H0V0z" fill="#F7DF1E"/><path d="M17.09 54.319l4.975-3.01c.96 1.7 1.833 3.14 3.927 3.14 2.007 0 3.272-.785 3.272-3.839V29.841h6.109v20.856c0 6.326-3.709 9.206-9.12 9.206-4.886 0-7.722-2.53-9.162-5.585M38.69 53.664l4.974-2.88c1.31 2.139 3.011 3.71 6.021 3.71 2.532 0 4.145-1.266 4.145-3.011 0-2.095-1.657-2.837-4.45-4.058l-1.527-.655c-4.407-1.876-7.33-4.232-7.33-9.206 0-4.581 3.49-8.072 8.944-8.072 3.884 0 6.676 1.353 8.683 4.887l-4.756 3.054c-1.047-1.876-2.181-2.618-3.926-2.618-1.79 0-2.924 1.135-2.924 2.618 0 1.833 1.135 2.575 3.752 3.709l1.527.654c5.193 2.226 8.116 4.494 8.116 9.6 0 5.497-4.32 8.508-10.123 8.508-5.672 0-9.337-2.706-11.125-6.24" fill="#000"/></svg><svg viewBox="0 0 2249 2249" id="skills--nodejs" xmlns="http://www.w3.org/2000/svg"><path d="M2249 1124.5c0 621-503.5 1124.5-1124.5 1124.5-573 0-1045.9-428.5-1115.6-982.6C3 1219.3 0 1171.9 0 1124.5c0-88 10.1-173.7 29.2-255.9C145.1 370.9 591.5 0 1124.5 0c531.7 0 977.2 369 1094.3 864.9 15.6 65.8 25.1 132.9 28.6 200.5 1.1 19.7 1.6 39.4 1.6 59.1z" fill="#fff"/><path d="M1068.3 1214.8V922.4L815.1 776.3 561.9 922.4v292.4L815.1 1361z" fill="#3b8739"/><path d="M2065.4 1170.4l165 95.3-165 95.3-253.2-146.2V922.5l253.2-146.2 153.4 88.6c15.6 65.8 25.1 132.9 28.6 200.5l-93.8 54.2v-101.8l-88.2-50.9-88.2 50.9v101.8z" fill="#333"/><path d="M2114.6 1097v-56.8l-49.1-28.4-49.2 28.4v56.8l49.2 28.4z" fill="#66a060"/><path d="M442.3 922.5V1308l-168.9-96.3V1014l-84.3-48.7-84.3 48.7v197.6l-95.9 54.7c-5.9-47-8.9-94.4-8.9-141.8 0-88 10.1-173.7 29.2-255.9l159.9-92.3z" fill="#333"/><path d="M815 776.2l253.2 438.5L815 1360.9 561.9 922.4z" fill="#6da75d"/><path d="M561.9 1214.8l86.9-141.8-86.9-150.6z" fill="#55a344"/><path d="M983.8 1068.6l84.4-146.2-253.1-146.1z" fill="#639d57"/><path d="M1522.3 437.4v387.9l-84.9-49-253.2 146.2v292.4l253.2 146.2 253.2-146.2V527.5zm-.5 679.9l-84.4 48.7-84.4-48.7v-97.4l84.4-48.7 84.4 48.7z" fill="#333"/><g fill="#66a060"><path d="M1239.4 1575.7s-5-42.7-50.7-42.7-77 6-77 31.3 88.9 25.3 122.7 35.3c33.8 9.9 63.6 35.8 48.7 81.5s-60.6 50.7-131.2 50.7-86.5-58.6-86.5-81.5h39.8s-5 35.8 41.7 41.7 91.4 9.3 97.4-26.8c8-47.7-151.1-23.9-165-70.6-11.8-39.5-5-91.4 74.5-99.4s123.2 27.2 123.2 79.5z"/><path d="M855.3 1762l87.9 50.7c44.2 25.5 99.4-6.4 99.4-57.4v-252.6h-35.8v242.6c0 27.8-30.1 45.3-54.3 31.3l-61.3-35.4v-258.9l224.2-129.4 224.2 129.4v258.9l-224.2 129.4-64.6-37.3-42.2 17 106.8 61.6 260-150.1v-300.2l-260-150.1-260 150.1z"/></g></svg><svg viewBox="0 -31.5 256 256" preserveAspectRatio="xMidYMid" id="skills--parcel" xmlns="http://www.w3.org/2000/svg"><defs><linearGradient x1="49.385%" y1="49.503%" x2="50.286%" y2="50.417%" id="axa"><stop offset="0%"/><stop stop-opacity="0" offset="100%"/></linearGradient><linearGradient x1="50.147%" y1="49.935%" x2="49.946%" y2="50.142%" id="axb"><stop offset="0%"/><stop stop-opacity="0" offset="100%"/></linearGradient><linearGradient x1="81.503%" y1="46.547%" x2="93.734%" y2="50.202%" id="axc"><stop stop-color="#C37A44" offset="0%"/><stop stop-color="#BB713D" offset="44.42%"/><stop stop-color="#A05728" offset="64.06%"/><stop stop-color="#964E23" offset="100%"/></linearGradient><linearGradient x1="63.475%" y1="61.32%" x2="41.388%" y2="43.414%" id="axd"><stop stop-color="#E9B880" offset="0%"/><stop stop-color="#E4AF76" offset="100%"/></linearGradient><linearGradient x1="50.894%" y1="51.117%" x2="49.16%" y2="49.274%" id="axe"><stop stop-color="#C37A45" stop-opacity="0" offset="0%"/><stop stop-color="#C37A45" offset="13.34%"/><stop stop-color="#D08D55" offset="29.45%"/><stop stop-color="#DEA167" offset="50.21%"/><stop stop-color="#E8AF73" offset="69.66%"/><stop stop-color="#ECB477" offset="86.31%"/><stop stop-color="#ECB477" stop-opacity="0" offset="100%"/></linearGradient><linearGradient x1="47.423%" y1="28.937%" x2="22.315%" y2="77.493%" id="axf"><stop stop-color="#AF6938" offset="8.81%"/><stop stop-color="#9A5227" offset="48.29%"/><stop stop-color="#8D4520" offset="77.92%"/></linearGradient><linearGradient x1="41.147%" y1="57.288%" x2="56.579%" y2="44.95%" id="axg"><stop stop-color="#E4AF76" offset="3.27%"/><stop stop-color="#E9B880" offset="100%"/></linearGradient><linearGradient x1="49.624%" y1="50.47%" x2="50.677%" y2="49.223%" id="axh"><stop stop-color="#AF6A38" stop-opacity="0" offset="0%"/><stop stop-color="#AF6A38" offset="8.6%"/><stop stop-color="#B87542" offset="19.77%"/><stop stop-color="#D59C66" offset="58.28%"/><stop stop-color="#E4AF76" offset="77.71%"/><stop stop-color="#E4AF76" stop-opacity="0" offset="92.39%"/></linearGradient><linearGradient x1="8.211%" y1="50.006%" x2="93.243%" y2="50.006%" id="axi"><stop stop-color="#743F1A" stop-opacity="0" offset="0%"/><stop stop-color="#743F1A" stop-opacity=".887" offset="49.29%"/><stop stop-color="#743F1A" stop-opacity=".9" offset="50%"/><stop stop-color="#743F1A" stop-opacity=".847" offset="52.97%"/><stop stop-color="#743F1A" stop-opacity="0" offset="100%"/></linearGradient><linearGradient x1="49.901%" y1="50.091%" x2="49.998%" y2="49.994%" id="axj"><stop stop-color="#322214" offset="0%"/><stop stop-color="#322314" stop-opacity=".989" offset="23.97%"/><stop stop-color="#322214" stop-opacity="0" offset="100%"/></linearGradient><linearGradient x1="51.38%" y1="48.236%" x2="48.714%" y2="51.568%" id="axk"><stop stop-color="#C69866" offset="4.76%"/><stop stop-color="#BA8C5E" offset="41.56%"/><stop stop-color="#B5875B" offset="81.35%"/></linearGradient><linearGradient x1="63.039%" y1="46.844%" x2="24.984%" y2="8.907%" id="axl"><stop stop-color="#845F35" offset="0%"/><stop stop-color="#91673C" offset="43.11%"/><stop stop-color="#976A40" offset="44.07%"/><stop stop-color="#986B40" offset="87.37%"/><stop stop-color="#AB8157" offset="100%"/></linearGradient><linearGradient x1="49.999%" y1="50.004%" x2="50.108%" y2="50.114%" id="axm"><stop stop-color="#322214" stop-opacity="0" offset="0%"/><stop stop-color="#322214" offset="100%"/></linearGradient><linearGradient x1="45.656%" y1="62.623%" x2="50.475%" y2="33.538%" id="axn"><stop stop-color="#A9794B" offset="0%"/><stop stop-color="#AE7F53" offset="38.57%"/><stop stop-color="#AC7D50" offset="45.57%"/><stop stop-color="#A9794B" offset="62.36%"/><stop stop-color="#B2875D" offset="100%"/></linearGradient></defs><path d="M140.515 191.333l70.257-44.428c.26-.16.6-.09.76.17.16.26.09.6-.17.76l-70.487 44.568c-.09.06-.19.09-.29.09l-.07-1.16z" fill="url(#axa)"/><path d="M140.585 192.493c-.06 0-.13-.01-.19-.03l-95.787-35.699a.543.543 0 01-.32-.71c.11-.29.42-.43.71-.32l95.537 35.599.05 1.16z" fill="url(#axb)"/><path d="M241.1 21.81l-11.059 18.309-44.428 18.89-2.47 1.05-39.929 37.338c-.77.77-1.29 1.87-1.38 2.48-.04.21-.22.12-.39.11-.18-.01-.43.06-.45-.16-.02-.8-.11-1.69-1.4-2.49l-20.009-12.96-14.59-9.46-41.097-10.539-34.4-8.82L7.71 21.71l.33-.38.02-.03L89.857.04c.12-.04.14-.02.19.05l27.898 41.789.55.82c.6.88.66 1.42.66 1.81h.51v-.09c0-.04 0-.09.01-.14 0-.03.01-.06.01-.1.01-.04.01-.08.02-.12.01-.04.01-.08.02-.13.03-.14.07-.3.11-.46.01-.05.03-.1.04-.14.05-.16.1-.33.16-.49.03-.06.05-.13.08-.19.08-.2.16-.38.25-.54.08-.16.16-.29.24-.4l25.15-36.579c.06-.09.09-.13.22-.11l94.966 16.34.16.45z" fill="#E8B67F"/><path fill="url(#axc)" d="M119.585 84.367h-.01l-14.58-9.45-41.097-10.539 55.257-19.87.15-.29v.29z"/><path d="M119.155 44.509L63.898 64.368l-4.98-1.28-29.42-7.55L7.71 21.69l.35-.41L89.857.02c.12-.04.14-.02.19.05l27.898 41.789.55.82c.6.9.66 1.44.66 1.83z" fill="url(#axd)"/><path d="M119.35 46.619L67.102 65.398l-8.15-2.09 59.028-21.22.55.82c.6.88.66 1.42.66 1.81h.15l.01 1.9z" fill="url(#axe)"/><path fill="#D2A679" d="M30.249 55.738l-.74-.19L7.719 21.7l.33-.38z"/><path d="M185.613 59.008l-2.47 1.05-39.929 37.339c-.77.77-1.29 1.87-1.38 2.48-.04.21-.22.12-.39.11-.18-.01-.43.06-.45-.16-.02-.8-.11-1.69-1.4-2.49l-20.009-12.97-.27-39.848v-.29l.37.29 65.928 14.49z" fill="url(#axf)"/><path d="M241.1 21.81l-11.059 18.309-40.438 17.19-3.98 1.69-65.948-14.49c-.04-.51.31-1.67.69-2.41.08-.16.16-.29.24-.4l25.15-36.579c.06-.09.09-.13.22-.11l94.966 16.34.16.46z" fill="url(#axg)"/><path d="M189.603 57.308l-6.45 2.74-.83.8-63.018-13.93.29-2.42h.08c-.04-.51.31-1.67.69-2.41l69.238 15.22z" fill="url(#axh)"/><path fill="url(#axi)" opacity=".75" d="M121.055 44.809v40.508l-1.47-.95h-.01l-1.93-1.26V45.05l1.51-.54h.51z"/><path d="M140.195 191.843l-95.867-35.769c-.54-.23-.62-.74-.65-1.37 0 0-4.12-81.696-4.13-81.706-.01-.21.25-.34.23-.47-.07-.31-.66-1.48-.85-1.6L0 48.808l.33-.75 104.666 26.86 34.589 22.409c1.29.8 1.39 1.69 1.4 2.49.01.22.27.15.45.16.18.01.35.1.39-.11.09-.61.61-1.71 1.38-2.47l39.928-37.339L255.54 29.28l.44.61-39.088 34.349c-.76.76-1.11 1.69-.96 2.07l-4 80.067c-.06.51-.3.66-.81 1.01l-70.077 44.358c-.28.18-.58.23-.85.1z" fill="#BF9064"/><path d="M141.434 99.977l-.69 91.906a.83.83 0 01-.56-.04l-95.866-35.759c-.54-.23-.62-.75-.65-1.37l-4.13-81.706v-.02c0-.02 0-.04.01-.06 0-.02.01-.03.02-.04.01-.02.02-.03.03-.05.01-.02.02-.03.03-.05.04-.06.1-.12.12-.17.01-.01.01-.02.01-.03v-.01l101.237 27.279c.04.18.28.11.44.12z" fill="#BD8F63"/><path d="M140.755 191.613v.26a.83.83 0 01-.56-.04l-95.867-35.759c-.38-.16-.53-.47-.6-.85l97.027 36.389z" fill="url(#axj)" opacity=".54"/><path d="M97.406 135.865l37.119 12.14-.09 36.198-36.429-13.38-.6-34.958zm18.6 24.32l.09 16.769 17.978 6.604v-17.094l-18.069-6.28zm5.311 5.417l3.633 5.782 3.559-3.118.62.707-3.673 3.217 3.681 5.858-.533.335-3.628-5.773-3.541 3.104-.62-.707 3.655-3.203-3.686-5.867.533-.335zm10.698 6.512v1.65l.95.31v1.86l-.95-.38v1.5l-2.08-3.16 2.08-1.78zm-3.2-2.01l.73.23v6.59l-.73-.26v-6.56zm-30.679-16.13l.27 16.51 17.18 6.28-.1-16.73-17.35-6.06zm26.86 19.68l1.88 3.03-3.75-1.36 1.87-1.67zm2.899-2.78v4.3l-1.95-2.75 1.95-1.55zm-7.44-3.83l.72.24v6.58l-.72-.25v-6.57zm1.62 1.77l1.86 2.87-1.86 1.43v-4.3zm-15.54-7.97l.71.23.002.422c2.114.85 4.202 2.97 5.209 6.268-.66-1.11-1.24-1.32-2.27-.97-.38-.79-1.5-1.21-2.17-.79a1.925 1.925 0 00-.746-.776l.036 6.276c0 .58-.4 1.1-1.39.9-.9-.22-1.27-.91-1.17-2.09l.5.08c0 .79.06 1.24.66 1.38.51.12.74-.07.74-.54l-.066-6.225c-.284-.02-.547.05-.734.215-.23-.58-1.32-1.36-2.14-.78-.58-.92-1.67-1.27-2.28-.6.779-2.355 2.894-3.18 5.113-2.585l-.003-.415zm11.38 6.13l2.03 3.2-2.01 1.67.04-1.57-.98-.23v-1.82l.92.34v-1.59zm5.15.69l3.8 1.38-1.9 1.67-1.9-3.05zm-7.09-25.2l.04 17.1 18.07 6.3v-17.47l-18.11-5.93zm3.37 14.77l10.8 3.69v2.15l-10.8-3.72v-2.12zm-9.338 4.069l.039.011c.07.07.07.82-.16.99a.41.41 0 01-.42-.05c-.14-.11-.22-.27-.16-.51s.66-.5.74-.43l-.039-.011zm1-1.71l.039.011c.08.07.08.82-.16.99a.41.41 0 01-.42-.05c-.14-.11-.22-.27-.16-.51s.66-.5.74-.43l-.039-.011zm-2.8-.07l.039.011c.08.07.08.82-.16.99a.41.41 0 01-.42-.05c-.14-.11-.22-.27-.16-.51s.66-.5.74-.43l-.039-.011zm-2.83-.41l.039.011c.08.07.08.82-.16.99a.41.41 0 01-.42-.05c-.14-.11-.22-.27-.16-.51s.66-.5.74-.43l-.039-.011zm22.308-11.228l2.62 5.17-1.79-.61v7.49l-1.79-.62.01-7.43-1.78-.58 2.73-3.42zm-29.889-11.38l.31 16.87 17.39 5.98-.15-17.09-17.55-5.76zm23.98 9.41l2.62 5.17-1.79-.61v7.49l-1.79-.62.02-7.43-1.79-.58 2.73-3.42zm-20.09-6.02l1.42.47.66 2.39-.74-.05 2.11 5.1-1.09-4.2.62-.01-.63-2.93 7.33 2.42v4.03c0 1.53-1.66 3.46-4 2.5l.01 4.05 3.36 2.16-8.13-2.82 3.27.16-.06-4.01c-2.32-.69-4-3.48-4-5.18l-.13-4.08z" fill="#322214"/><path d="M141.434 99.977c-.4.01-.7.54-.71 1.02l-.09.04-101.096-28.04c-.01-.19.21-.31.23-.43.01-.01.01-.02 0-.03-.07-.31-.66-1.48-.85-1.6L0 48.81l.33-.75 104.656 26.849h.01l34.589 22.409c1.29.81 1.39 1.69 1.4 2.49 0 .01 0 .03.01.04.04.19.28.12.44.13z" fill="url(#axk)"/><path d="M216.902 64.228c-.76.76-1.11 1.69-.96 2.07l-73.628 34.839-.15-.12c-.01-.58-.38-.97-.66-1.03.15.02.29.07.33-.12.02-.12.05-.26.1-.41.04-.13.1-.27.17-.42.21-.48.53-1 .94-1.46.06-.06.12-.13.18-.19l39.929-37.339L255.56 29.27l.44.61-39.098 34.349z" fill="#CD9C6B"/><path d="M95.996 109.136c.11.03.15.04.15-.05l-.38-20.339c-.03-.69-.2-2.05-1.03-2.6L57.868 63.748l-17.28-4.46 37.469 22.39c.94.62 1.02 1.78 1.06 2.64l.54 19.778c0 .1.02.12.09.15l16.25 4.89z" fill="url(#axl)"/><path d="M141.434 99.977c-.41.01-.71.57-.71 1.06-.01.04-.08.03-.09 0-.08-1.09-.53-2.31-1.12-2.74l-34.868-22.48.34-.91h.01l34.589 22.41c1.29.81 1.39 1.69 1.4 2.49 0 .01 0 .03.01.04.04.19.28.12.44.13z" fill="#D4A271"/><path fill="#DEB37E" d="M104.986 74.918l-.34.9L0 48.808l.33-.74z"/><path d="M215.952 66.298l-4 80.067c-.06.51-.3.66-.81 1.01l-70.077 44.358c-.1.07-.21.11-.31.14l.69-91.906c.18.01.35.1.39-.11 0-.03.01-.05.01-.08l74.087-33.57c0 .05.01.07.02.09z" fill="#DBAD77"/><path d="M211.952 146.335v.04c-.06.51-.3.66-.81 1.01l-70.077 44.358c-.1.07-.21.11-.31.14v-.26l71.197-45.288z" fill="url(#axm)" opacity=".54"/><path d="M210.642 111.496l-1.6 32.599-23.3 14.51 1.2-33.93 23.7-13.179zm-12.46 23.6l-11.58 6.809-.55 16.05 11.53-7.17.6-15.69zm-5.53 6.889l-.02.54c1.383-.69 2.69-.21 3.24 2.08-.38-.53-1.07-.32-1.53.76-.21-.45-1.28-.08-1.44.86-.085-.153-.238-.209-.414-.189l-.255 6.189c-.02.53-.05 1.1-.72 1.51-.31.14-1.13.25-1.02-.9l.39-.3c-.03.73.16.95.56.71.48-.29.39-.75.41-1.18l.215-5.864a1.404 1.404 0 00-.605.894c-.12-.36-1.28-.14-1.42.89-.33-.44-1.23-.01-1.57 1.1.626-2.883 2.178-5.276 3.723-6.306l.017-.474.44-.32zm16.9-13.61l-11.04 6.53-.61 15.73 10.92-6.87.73-15.39zm-3.41 5.3l.32.3-2.406 5.458 1.986 2.742-.32.68-1.98-2.71-2.38 5.4-.33-.3 2.424-5.491-2.054-2.809.36-.68 2.01 2.775 2.37-5.365zm-6.72 6.27l1.25 1.52-1.33 2.86v-1.26l-.56.34.03-1.63.56-.33.05-1.5zm2.16-1.98l-.26 6.03-.45.3.25-6.01.46-.32zm2.11 3.15l1.07 1.41-2.3 1.4 1.23-2.81zm-12.25.44c.05 0 .02.69-.15 1.03-.06.12-.17.25-.26.26-.09.01-.13-.09-.08-.35s.44-.94.49-.94zm10.64-2.77l1.06 1.31-1.24 2.45.18-3.76zm-7.6 1.52c.04.01.01.7-.15 1.03-.06.12-.17.25-.26.26-.09.01-.13-.09-.08-.35s.44-.94.49-.94zm4.44-21.84l-11.7 6.56-.61 16.37 11.61-6.84.7-16.09zm7.71 16.43l-.28 6.02-.4.26.27-6.01.41-.27zm-13.25 4.96c.05 0 .02.69-.15 1.03-.06.12-.17.25-.26.26-.09.01-.13-.09-.08-.35s.44-.94.49-.94zm12.22-3.21l-.16 3.84-1.04-1.24 1.2-2.6zm2.48-1.83l-.06 1.48.58-.32-.07 1.64-.56.33-.02 1.35-1.21-1.45 1.34-3.03zm-12.83 3.06c.05 0 .02.69-.15 1.03-.06.12-.17.25-.26.26-.09.01-.13-.09-.08-.35s.44-.94.49-.94zm9.78-2.32l-1.24 2.84-1.07-1.45 2.31-1.39zm-8.83-13.61l-.15 4.12c-.06 1.4-1.18 3.94-2.85 5l-.18 3.89 2.23-.48-5.43 3.14 2.26-2.15.12-3.82c-1.45.83-2.61-.71-2.54-2.27l.13-3.78.98-.53.32 1.82-.53.43 1.17 3.39-.45-3.09.4-.46-.31-2.43 4.83-2.78zm14.2-9.859l-11.2 6.26-.7 16.09 11.1-6.64.8-15.71zm-2.92 13.87l-.14 1.91-6.56 3.88.09-1.93 6.61-3.86zm-4.64-8.25l1.45 3.06-1.09.61-.33 6.87-1.04.6.2-6.87-1.05.63 1.86-4.9zm3.64-2.02l1.41 3.01-1.16.65-.24 6.82-1.11.62.35-6.87-1.09.62 1.84-4.85z" fill="#322214"/><path d="M183.733 60.838l-39.589 36.799c-1.12 1.07-1.86 2.67-1.83 3.5-.02.04-.12.07-.16 0 .05-.64-.36-1.08-.66-1.15.15.02.29.07.33-.12.02-.12.05-.26.1-.41.04-.13.1-.27.17-.42.24-.54.63-1.16 1.11-1.64l39.929-37.339.6.78z" fill="#D7AA77"/><path d="M175.003 105.476c0 .11.05.16.12.13l11.89-6.1c.02-.01.03-.03.04-.07l.66-19.489c.02-1.07.62-2.13 1.44-2.86L228.64 41.6l-12.02 5.15-39.688 35.958c-1.02 1-1.37 2.18-1.39 3.18l-.54 19.59z" fill="url(#axn)"/><path fill="#F8CE93" d="M183.733 60.838L255.99 29.88l-.44-.6-72.407 30.77z"/></svg><svg fill="none" viewBox="0 0 72 65" id="skills--react" xmlns="http://www.w3.org/2000/svg"><path d="M.212 32.43c0 5.43 5.277 10.499 13.597 13.356-1.662 8.404-.298 15.178 4.256 17.817 4.682 2.713 11.656.835 18.276-4.979 6.453 5.58 12.974 7.776 17.525 5.128 4.677-2.72 6.1-9.953 4.392-18.62 8.665-2.878 13.512-7.201 13.512-12.703 0-5.304-5.286-9.893-13.494-12.732 1.838-9.024.281-15.634-4.462-18.382-4.573-2.65-11.17-.34-17.718 5.385C29.285.623 22.752-1.233 18.014 1.524c-4.569 2.657-5.872 9.554-4.205 18.114C5.77 22.454.212 27.146.212 32.429z" fill="#fff"/><path d="M56.538 22.517a42.26 42.26 0 00-2.046-.648c.116-.474.222-.942.316-1.402 1.549-7.554.536-13.639-2.921-15.642-3.315-1.921-8.737.082-14.213 4.87-.526.46-1.055.948-1.582 1.46a38.762 38.762 0 00-1.053-.978c-5.74-5.12-11.492-7.278-14.946-5.269-3.312 1.927-4.293 7.647-2.899 14.806.135.691.292 1.397.47 2.115-.814.233-1.6.48-2.352.744-6.728 2.357-11.025 6.05-11.025 9.882 0 3.958 4.613 7.927 11.62 10.334.554.19 1.128.37 1.719.54a42.065 42.065 0 00-.5 2.28c-1.328 7.034-.29 12.62 3.013 14.534 3.412 1.977 9.138-.056 14.714-4.953.441-.387.883-.798 1.326-1.228a41.82 41.82 0 001.718 1.575c5.401 4.67 10.736 6.556 14.036 4.636 3.409-1.983 4.516-7.983 3.078-15.283a36.32 36.32 0 00-.381-1.707c.402-.12.797-.242 1.182-.37 7.285-2.426 12.025-6.347 12.025-10.358 0-3.845-4.435-7.564-11.299-9.938z" fill="#53C1DE"/><path d="M54.958 40.223c-.347.116-.704.227-1.067.336-.805-2.559-1.89-5.28-3.218-8.09 1.267-2.744 2.31-5.43 3.092-7.972.65.19 1.282.389 1.89.599 5.88 2.034 9.468 5.042 9.468 7.36 0 2.468-3.875 5.672-10.165 7.767zm-2.61 5.197c.636 3.228.727 6.146.305 8.428-.378 2.05-1.14 3.417-2.08 3.964-2.003 1.165-6.286-.35-10.905-4.343a38.989 38.989 0 01-1.598-1.464c1.79-1.968 3.58-4.256 5.327-6.797 3.072-.274 5.975-.721 8.607-1.333.13.526.245 1.041.344 1.545zM25.953 57.61c-1.957.695-3.515.715-4.457.17-2.005-1.163-2.838-5.647-1.702-11.663.13-.689.286-1.396.464-2.12 2.604.579 5.485.995 8.564 1.246 1.759 2.486 3.6 4.771 5.456 6.772-.406.394-.81.768-1.211 1.12-2.466 2.166-4.937 3.703-7.114 4.476zm-9.167-17.402c-3.099-1.064-5.658-2.448-7.412-3.957-1.576-1.356-2.372-2.703-2.372-3.796 0-2.325 3.45-5.29 9.204-7.307.698-.244 1.429-.475 2.187-.691.796 2.6 1.839 5.317 3.098 8.065-1.276 2.789-2.334 5.55-3.137 8.18-.54-.157-1.064-.321-1.568-.494zm3.073-21.018c-1.195-6.133-.402-10.76 1.594-11.92 2.127-1.238 6.828.526 11.783 4.947.317.282.635.578.954.884-1.847 1.992-3.671 4.26-5.414 6.732-2.989.278-5.85.726-8.48 1.324a40.032 40.032 0 01-.437-1.967zm27.412 6.802a86.833 86.833 0 00-1.932-3.194c2.028.258 3.97.6 5.795 1.018a58.466 58.466 0 01-2.034 5.499 95.415 95.415 0 00-1.829-3.323zM36.093 15.05a58.234 58.234 0 013.74 4.536 79.683 79.683 0 00-7.512-.002 60.088 60.088 0 013.772-4.534zm-11.25 10.96a80.628 80.628 0 00-1.795 3.302 60.45 60.45 0 01-2.02-5.526 60.906 60.906 0 015.762-.994 80.205 80.205 0 00-1.948 3.217zm2.005 16.301a57.53 57.53 0 01-5.857-.946 61.449 61.449 0 012.06-5.638 80.787 80.787 0 003.797 6.584zm9.32 7.74a61.166 61.166 0 01-3.824-4.598c1.217.048 2.457.073 3.718.073 1.296 0 2.576-.03 3.836-.086a57.96 57.96 0 01-3.73 4.611zM49.126 35.63a58.074 58.074 0 012.134 5.618 57.424 57.424 0 01-5.929 1.015c.66-1.05 1.311-2.134 1.951-3.25a86.848 86.848 0 001.844-3.383zm-4.195 2.021a89.484 89.484 0 01-3.05 4.943 81.372 81.372 0 01-5.819.205c-1.977 0-3.901-.062-5.754-.183a77.457 77.457 0 01-3.106-4.95 76.85 76.85 0 01-2.711-5.145 77.426 77.426 0 012.703-5.148 76.74 76.74 0 013.081-4.929 76.538 76.538 0 015.787-.218c1.968 0 3.908.075 5.798.22a82.282 82.282 0 013.062 4.912 89.64 89.64 0 012.74 5.124 82.333 82.333 0 01-2.731 5.169zm5.6-30.463c2.128 1.233 2.956 6.207 1.619 12.728-.086.416-.182.84-.286 1.27-2.637-.612-5.5-1.067-8.497-1.35-1.746-2.498-3.556-4.77-5.372-6.736.488-.472.976-.922 1.461-1.347 4.692-4.103 9.077-5.723 11.075-4.565z" fill="#fff"/><path d="M36.062 26.753c3.134 0 5.675 2.553 5.675 5.702 0 3.15-2.54 5.703-5.675 5.703-3.134 0-5.675-2.553-5.675-5.703 0-3.149 2.541-5.702 5.675-5.702z" fill="#53C1DE"/></svg><svg viewBox="0 0 48 48" id="skills--redux" xmlns="http://www.w3.org/2000/svg"><path fill="#7e57c2" d="M23 4c-6.617 0-12 7.27-12 16.205 0 4.834 1.582 9.169 4.078 12.136A2.986 2.986 0 0015 33a3 3 0 103-3 2.96 2.96 0 00-.897.152C15.206 27.731 14 24.175 14 20.205 14 12.924 18.037 7 23 7c3.837 0 7.111 3.547 8.404 8.518 1.122.346 2.237.782 3.33 1.308C33.579 9.508 28.759 4 23 4z"/><path fill="#7e57c2" d="M35.507 20.084c-3.947-2.392-8.374-3.442-12.182-2.959A2.982 2.982 0 0021 16a3 3 0 100 6 2.995 2.995 0 002.789-1.912c3.118-.379 6.812.531 10.163 2.563 6.403 3.881 9.67 10.569 7.282 14.911-.827 1.504-2.286 2.572-4.218 3.09-2.286.611-5.007.394-7.727-.528a24.508 24.508 0 01-2.725 2.168c2.552 1.117 5.196 1.704 7.669 1.704 1.24 0 2.438-.147 3.559-.447 2.741-.733 4.841-2.304 6.071-4.542 3.153-5.731-.596-14.22-8.356-18.923z"/><path fill="#7e57c2" d="M35 28.992C35 27.34 33.657 26 32 26s-3 1.34-3 2.992c0 .669.228 1.281.6 1.779-1.279 2.802-3.744 5.567-7.062 7.578-3.865 2.344-8.185 3.202-11.555 2.302-1.932-.518-3.391-1.586-4.218-3.09-1.702-3.094-.521-7.376 2.61-10.988a22.94 22.94 0 01-.706-3.575c-5.07 4.797-7.109 11.323-4.532 16.009 1.23 2.238 3.33 3.809 6.071 4.542 1.121.3 2.318.447 3.559.447 3.346 0 7.007-1.068 10.326-3.08 3.836-2.325 6.683-5.577 8.209-8.962C33.815 31.801 35 30.541 35 28.992z"/></svg><svg version="1.1" id="skills--rest-api" x="0" y="0" viewBox="0 0 122.88 100.33" xml:space="preserve" xmlns="http://www.w3.org/2000/svg"><style>.bast0{fill-rule:evenodd;clip-rule:evenodd}</style><path class="bast0" d="M102.79 7.11l2.59 3.41c.68.9.51 2.19-.39 2.87l-2.75 2.09c.5 1.33.82 2.75.95 4.2l3.13.43c1.12.15 1.9 1.19 1.75 2.31l-.58 4.25a2.044 2.044 0 01-2.31 1.75l-3.42-.47c-.61 1.33-1.39 2.55-2.31 3.64l1.92 2.52c.68.9.5 2.19-.4 2.87l-3.41 2.59c-.9.68-2.19.5-2.87-.39l-2.09-2.75c-1.34.5-2.75.82-4.21.95l-.43 3.13a2.051 2.051 0 01-2.31 1.75l-4.25-.58a2.051 2.051 0 01-1.75-2.31l.47-3.42c-1.32-.61-2.55-1.39-3.64-2.3l-2.52 1.91c-.9.68-2.19.51-2.87-.39l-2.59-3.41c-.68-.9-.51-2.19.39-2.87l2.75-2.09c-.5-1.34-.82-2.75-.95-4.2l-3.13-.43a2.044 2.044 0 01-1.75-2.31l.58-4.25c.16-1.12 1.19-1.9 2.31-1.75l3.42.47c.61-1.32 1.39-2.55 2.3-3.64l-1.91-2.52c-.68-.89-.51-2.18.39-2.86l3.41-2.59c.9-.68 2.19-.51 2.87.39l2.09 2.75c1.33-.5 2.75-.82 4.2-.95l.43-3.13A2.059 2.059 0 0188.21.02l4.25.58c1.12.15 1.91 1.19 1.75 2.31l-.47 3.42c1.33.61 2.55 1.39 3.65 2.31l2.52-1.91c.9-.69 2.19-.52 2.88.38zM29.67 67.12v-16.5h8.5c1.58 0 2.78.13 3.61.41.83.27 1.51.77 2.01 1.5.51.74.77 1.63.77 2.68 0 .91-.2 1.71-.59 2.37-.39.67-.93 1.21-1.61 1.62-.43.26-1.03.48-1.79.65.61.21 1.05.4 1.32.61.19.14.46.43.81.87.35.44.59.79.71 1.03l2.48 4.77h-5.76l-2.72-5.03c-.35-.65-.65-1.08-.92-1.27-.37-.25-.79-.38-1.25-.38h-.45v6.68h-5.12v-.01zm17.98 28.73h-9.52l-1.37 4.48h-8.58l10.23-27.19h9.2l10.19 27.19H49l-1.35-4.48zm-1.78-5.89l-2.97-9.78-2.98 9.78h5.95zm13.91-16.82h13.98c3.05 0 5.33.72 6.84 2.17 1.51 1.45 2.27 3.52 2.27 6.19 0 2.75-.83 4.9-2.48 6.45-1.65 1.55-4.18 2.32-7.57 2.32h-4.61v10.06h-8.43V73.14zm8.43 11.62h2.07c1.63 0 2.78-.28 3.44-.85.66-.56.99-1.29.99-2.16 0-.85-.29-1.58-.86-2.17-.57-.59-1.65-.89-3.23-.89h-2.41v6.07zm18.06-11.62h8.43v27.19h-8.43V73.14zM34.79 57.32h2.15c.23 0 .68-.08 1.35-.23.34-.07.62-.24.83-.52.22-.28.32-.6.32-.96 0-.53-.17-.95-.51-1.23-.34-.29-.97-.43-1.9-.43h-2.24v3.37zm12.08-6.7h13.65v3.52h-8.53v2.63h7.91v3.36h-7.91v3.25h8.78v3.73h-13.9V50.62zm15.11 11.04l4.84-.3c.1.79.32 1.38.64 1.79.53.66 1.28 1 2.25 1 .72 0 1.29-.17 1.68-.51.39-.34.59-.74.59-1.19 0-.43-.19-.81-.56-1.15-.37-.34-1.24-.65-2.61-.96-2.23-.5-3.82-1.17-4.78-2-.96-.83-1.44-1.89-1.44-3.18 0-.85.25-1.65.74-2.4s1.23-1.35 2.22-1.78c.99-.43 2.34-.64 4.06-.64 2.11 0 3.71.39 4.82 1.18 1.1.79 1.76 2.03 1.97 3.75l-4.79.29c-.13-.75-.4-1.3-.8-1.63-.41-.34-.98-.51-1.69-.51-.59 0-1.04.13-1.34.38-.3.25-.45.56-.45.92 0 .26.13.49.37.71.24.21.8.42 1.7.61 2.23.48 3.83.97 4.79 1.46s1.67 1.1 2.1 1.83c.44.72.66 1.54.66 2.44 0 1.06-.29 2.03-.88 2.92-.58.89-1.4 1.57-2.45 2.03-1.05.46-2.37.69-3.97.69-2.8 0-4.75-.54-5.83-1.62-1.08-1.1-1.69-2.47-1.84-4.13zm15.71-11.04H93.2v4.08H88v12.42h-5.1V54.7h-5.21v-4.08zM60.53 11.46a31.69 31.69 0 00-5.51.06c-5.63.54-11.1 2.59-15.62 6.1-5.23 4.05-9.2 10.11-10.73 18.14l-.48 2.51-2.5.44c-2.45.43-4.64 1.02-6.56 1.77-1.86.72-3.52 1.61-4.97 2.66-1.16.84-2.16 1.78-3.01 2.8-2.63 3.15-3.85 7.1-3.82 11.1a20.07 20.07 0 003.79 11.53c.91 1.25 1.96 2.4 3.16 3.4a15.86 15.86 0 004.13 2.48c.87.36 1.8.66 2.77.9v7.49c-2-.36-3.84-.9-5.56-1.61-2.27-.94-4.28-2.15-6.05-3.63-1.68-1.4-3.15-2.99-4.4-4.72C1.84 68.28.04 62.66 0 57.06c-.04-5.66 1.72-11.29 5.52-15.85 1.23-1.48 2.68-2.84 4.34-4.04 1.93-1.4 4.14-2.58 6.64-3.55 1.72-.67 3.56-1.23 5.5-1.68 2.2-8.74 6.89-15.47 12.92-20.14 5.64-4.37 12.43-6.92 19.42-7.59 3.67-.35 7.39-.19 11.03.49-.08.33-.15.66-.19 1l-.01.06c-.07.57-.1 1.14-.07 1.72-.77.3-1.49.71-2.14 1.21l-.03.02c-.97.73-1.79 1.67-2.4 2.75zm52.91 19.2c.56.51 1.1 1.04 1.63 1.61 1.07 1.15 2.08 2.45 3.03 3.9 3.2 4.92 4.84 11.49 4.77 17.92-.07 6.31-1.77 12.59-5.25 17.21-2.27 3.01-5.18 5.47-8.67 7.42-2.39 1.34-5.08 2.45-8.01 3.35v-7.75c1.58-.59 3.05-1.25 4.4-2 2.63-1.47 4.78-3.26 6.39-5.41 2.5-3.33 3.73-8.04 3.78-12.87.06-5.07-1.18-10.16-3.59-13.86-.69-1.07-1.45-2.03-2.25-2.89-.31-.33-.62-.64-.94-.94.05-.5.07-1.01.04-1.52.77-.3 1.49-.71 2.14-1.21l.03-.02a9.078 9.078 0 002.5-2.94zM88.08 12.8c4.61.63 7.83 4.88 7.2 9.49-.63 4.61-4.88 7.84-9.49 7.21-4.61-.63-7.84-4.88-7.2-9.49.64-4.61 4.88-7.84 9.49-7.21z"/></svg><svg viewBox="0 0 48 48" id="skills--sass" xmlns="http://www.w3.org/2000/svg"><path fill="#f06292" d="M39.867 25.956a9.032 9.032 0 00-3.986.928c-.408-.815-.822-1.532-.891-2.065-.081-.622-.175-.994-.077-1.735.098-.741.527-1.791.521-1.87-.006-.079-.096-.456-.983-.463-.887-.006-1.646.171-1.735.405-.089.234-.26.761-.366 1.311-.155.804-1.771 3.673-2.688 5.173-.3-.586-.555-1.102-.608-1.51-.081-.622-.175-.994-.077-1.735.098-.741.527-1.791.521-1.87-.006-.079-.096-.456-.983-.463-.887-.006-1.646.171-1.735.405-.089.234-.185.781-.366 1.311-.182.529-2.329 5.314-2.892 6.555-.287.632-.536 1.14-.712 1.486l-.001-.002-.029.062c-.151.295-.24.458-.24.458l.003.006c-.12.217-.248.418-.311.418-.044 0-.133-.577.019-1.369.32-1.66 1.087-4.248 1.08-4.338-.004-.046.143-.497-.501-.733-.626-.229-.849.153-.906.154-.055.001-.096.135-.096.135s.697-2.911-1.33-2.911c-1.268 0-3.024 1.387-3.889 2.644-.546.298-1.715.936-2.954 1.617l-1.423.783-.095-.104c-2.459-2.623-7.003-4.478-6.811-8.005.07-1.282.516-4.658 8.733-8.752 6.731-3.354 12.12-2.431 13.051-.386 1.33 2.923-2.88 8.354-9.87 9.138-2.663.299-4.066-.734-4.415-1.118-.367-.405-.422-.423-.559-.347-.223.124-.082.481 0 .694.209.543 1.065 1.506 2.525 1.986 1.285.422 4.412.653 8.193-.81 4.236-1.638 7.543-6.196 6.571-10.005-.988-3.874-7.412-5.148-13.492-2.988-3.623 1.286-7.54 3.304-10.357 5.938-3.349 3.132-3.883 5.859-3.663 6.998.782 4.048 6.361 6.684 8.595 8.637l-.308.17c-1.12.554-5.373 2.78-6.437 5.131-1.207 2.667.192 4.581 1.118 4.839 2.869.798 5.813-.638 7.396-2.998 1.582-2.359 1.389-5.432.663-6.834l-.028-.052.876-.517c.57-.335 1.13-.647 1.615-.911-.272.744-.471 1.637-.574 2.926-.122 1.514.499 3.471 1.311 4.241.358.339.788.347 1.06.347.945 0 1.376-.786 1.851-1.716.582-1.14 1.099-2.468 1.099-2.468s-.648 3.586 1.118 3.586c.644 0 1.291-.835 1.58-1.26l.001.007.05-.083c.067-.102.105-.167.105-.167l.003-.019a70.91 70.91 0 001.693-3.162c1.112-2.182 2.178-4.916 2.178-4.916s.099.668.424 1.774c.191.65.597 1.369.918 2.059-.258.358-.416.563-.416.563l.004.011c-.206.274-.437.569-.679.857-.878 1.045-1.923 2.239-2.063 2.583-.165.406-.126.704.193.945.233.175.647.203 1.08.174a4.92 4.92 0 001.617-.368 5.426 5.426 0 001.39-.731c.861-.633 1.38-1.538 1.33-2.738-.028-.661-.238-1.316-.505-1.934l.235-.34c1.357-1.984 2.41-4.164 2.41-4.164s.099.668.424 1.774c.164.559.489 1.17.781 1.768-1.276 1.037-2.067 2.242-2.342 3.032-.508 1.462-.11 2.124.636 2.275.338.068.816-.087 1.175-.239a5.438 5.438 0 001.486-.764c.861-.633 1.689-1.519 1.639-2.718-.023-.546-.171-1.088-.372-1.608 1.082-.451 2.482-.701 4.266-.493 3.827.447 4.577 2.836 4.434 3.836-.144 1-.946 1.55-1.215 1.716-.268.166-.35.224-.328.347.033.179.157.173.386.134.315-.053 2.009-.813 2.082-2.659.091-2.346-2.154-4.92-6.131-4.899zM10.37 35.9c-1.268 1.383-3.038 1.905-3.798 1.465-.82-.475-.495-2.511 1.06-3.979.948-.894 2.172-1.718 2.984-2.225l.786-.472.086-.048-.001-.002.196-.118c.567 2.089.018 3.928-1.313 5.379zm9.235-6.277c-.441 1.076-1.365 3.83-1.928 3.682-.483-.127-.777-2.22-.096-4.28.342-1.037 1.074-2.276 1.504-2.757.692-.774 1.454-1.027 1.639-.713.235.4-.842 3.393-1.119 4.068zm7.629 3.64c-.187.098-.359.159-.438.112-.059-.035.077-.164.077-.164s.954-1.027 1.33-1.494c.219-.272.472-.595.748-.955l.003.107c-.002 1.23-1.19 2.06-1.72 2.394zm5.877-1.34c-.14-.099-.116-.42.343-1.421.18-.393.592-1.054 1.306-1.686.083.26.133.509.132.741-.009 1.548-1.113 2.126-1.781 2.366z"/></svg><svg fill="none" viewBox="0 0 100 100" id="skills--vscode" xmlns="http://www.w3.org/2000/svg"><mask id="bca" maskUnits="userSpaceOnUse" x="0" y="0" width="100" height="100"><path fill-rule="evenodd" clip-rule="evenodd" d="M70.912 99.317a6.223 6.223 0 004.96-.19l20.589-9.907A6.25 6.25 0 00100 83.587V16.413a6.25 6.25 0 00-3.54-5.632L75.874.874a6.226 6.226 0 00-7.104 1.21L29.355 38.04 12.187 25.01a4.162 4.162 0 00-5.318.236l-5.506 5.009a4.168 4.168 0 00-.004 6.162L16.247 50 1.36 63.583a4.168 4.168 0 00.004 6.162l5.506 5.01a4.162 4.162 0 005.318.236l17.168-13.032L68.77 97.917a6.217 6.217 0 002.143 1.4zM75.015 27.3L45.11 50l29.906 22.701V27.3z" fill="#fff"/></mask><g mask="url(#bca)"><path d="M96.461 10.796L75.857.876a6.23 6.23 0 00-7.107 1.207l-67.451 61.5a4.167 4.167 0 00.004 6.162l5.51 5.009a4.167 4.167 0 005.32.236l81.228-61.62c2.725-2.067 6.639-.124 6.639 3.297v-.24a6.25 6.25 0 00-3.539-5.63z" fill="#0065A9"/><g filter="url(#bcfilter0_d)"><path d="M96.461 89.204l-20.604 9.92a6.229 6.229 0 01-7.107-1.207l-67.451-61.5a4.167 4.167 0 01.004-6.162l5.51-5.009a4.167 4.167 0 015.32-.236l81.228 61.62c2.725 2.067 6.639.124 6.639-3.297v.24a6.25 6.25 0 01-3.539 5.63z" fill="#007ACC"/></g><g filter="url(#bcfilter1_d)"><path d="M75.858 99.126a6.232 6.232 0 01-7.108-1.21c2.306 2.307 6.25.674 6.25-2.588V4.672c0-3.262-3.944-4.895-6.25-2.589a6.232 6.232 0 017.108-1.21l20.6 9.908A6.25 6.25 0 01100 16.413v67.174a6.25 6.25 0 01-3.541 5.633l-20.601 9.906z" fill="#1F9CF0"/></g><path fill-rule="evenodd" clip-rule="evenodd" d="M70.851 99.317a6.224 6.224 0 004.96-.19L96.4 89.22a6.25 6.25 0 003.54-5.633V16.413a6.25 6.25 0 00-3.54-5.632L75.812.874a6.226 6.226 0 00-7.104 1.21L29.294 38.04 12.126 25.01a4.162 4.162 0 00-5.317.236l-5.507 5.009a4.168 4.168 0 00-.004 6.162L16.186 50 1.298 63.583a4.168 4.168 0 00.004 6.162l5.507 5.009a4.162 4.162 0 005.317.236L29.294 61.96l39.414 35.958a6.218 6.218 0 002.143 1.4zM74.954 27.3L45.048 50l29.906 22.701V27.3z" fill="url(#bcpaint0_linear)" opacity=".25"/></g><defs><filter id="bcfilter0_d" x="-8.394" y="15.829" width="116.727" height="92.246" filterUnits="userSpaceOnUse" color-interpolation-filters="sRGB"><feFlood flood-opacity="0" result="BackgroundImageFix"/><feColorMatrix in="SourceAlpha" values="0 0 0 0 0 0 0 0 0 0 0 0 0 0 0 0 0 0 127 0"/><feOffset/><feGaussianBlur stdDeviation="4.167"/><feColorMatrix values="0 0 0 0 0 0 0 0 0 0 0 0 0 0 0 0 0 0 0.25 0"/><feBlend mode="overlay" in2="BackgroundImageFix" result="effect1_dropShadow"/><feBlend in="SourceGraphic" in2="effect1_dropShadow" result="shape"/></filter><filter id="bcfilter1_d" x="60.417" y="-8.076" width="47.917" height="116.151" filterUnits="userSpaceOnUse" color-interpolation-filters="sRGB"><feFlood flood-opacity="0" result="BackgroundImageFix"/><feColorMatrix in="SourceAlpha" values="0 0 0 0 0 0 0 0 0 0 0 0 0 0 0 0 0 0 127 0"/><feOffset/><feGaussianBlur stdDeviation="4.167"/><feColorMatrix values="0 0 0 0 0 0 0 0 0 0 0 0 0 0 0 0 0 0 0.25 0"/><feBlend mode="overlay" in2="BackgroundImageFix" result="effect1_dropShadow"/><feBlend in="SourceGraphic" in2="effect1_dropShadow" result="shape"/></filter><linearGradient id="bcpaint0_linear" x1="49.939" y1=".258" x2="49.939" y2="99.742" gradientUnits="userSpaceOnUse"><stop stop-color="#fff"/><stop offset="1" stop-color="#fff" stop-opacity="0"/></linearGradient></defs></svg><svg viewBox="0 0 48 48" id="skills--webpack" xmlns="http://www.w3.org/2000/svg"><path fill="#eceff1" d="M24 4L7 14v20l17 10 17-10V14z"/><path fill="#0277bd" d="M23.5 24.5v9L15 29v-9.5zM24.5 24.5v9L33 29v-9.5zM24 23.5l-8.5-5L24 14l8.5 4.5z"/><g fill="#81d4fa"><path d="M23.5 7v6l-9 5-5-3zM23.5 41v-6l-9-5-5 3zM14 19l-5-3v16l5-3zM24.5 7v6l9 5 5-3zM24.5 41v-6l9-5 5 3zM34 19l5-3v16l-5-3z"/></g></svg><svg viewBox="0 0 32 32" id="social--github" xmlns="http://www.w3.org/2000/svg"><path d="M16 .395c-8.836 0-16 7.163-16 16 0 7.069 4.585 13.067 10.942 15.182.8.148 1.094-.347 1.094-.77 0-.381-.015-1.642-.022-2.979-4.452.968-5.391-1.888-5.391-1.888-.728-1.849-1.776-2.341-1.776-2.341-1.452-.993.11-.973.11-.973 1.606.113 2.452 1.649 2.452 1.649 1.427 2.446 3.743 1.739 4.656 1.33.143-1.034.558-1.74 1.016-2.14-3.554-.404-7.29-1.777-7.29-7.907 0-1.747.625-3.174 1.649-4.295-.166-.403-.714-2.03.155-4.234 0 0 1.344-.43 4.401 1.64a15.353 15.353 0 014.005-.539c1.359.006 2.729.184 4.008.539 3.054-2.07 4.395-1.64 4.395-1.64.871 2.204.323 3.831.157 4.234 1.026 1.12 1.647 2.548 1.647 4.295 0 6.145-3.743 7.498-7.306 7.895.574.497 1.085 1.47 1.085 2.963 0 2.141-.019 3.864-.019 4.391 0 .426.288.925 1.099.768C27.421 29.457 32 23.462 32 16.395c0-8.837-7.164-16-16-16z"/></svg><svg viewBox="0 0 32 32" id="social--linkedin" xmlns="http://www.w3.org/2000/svg"><path d="M12 12h5.535v2.837h.079c.77-1.381 2.655-2.837 5.464-2.837C28.92 12 30 15.637 30 20.367V30h-5.769v-8.54c0-2.037-.042-4.657-3.001-4.657-3.005 0-3.463 2.218-3.463 4.509V30H12V12zM2 12h6v18H2V12zM8 7a3 3 0 11-6 0 3 3 0 016 0z"/></svg><svg viewBox="0 0 32 32" id="social--mail" xmlns="http://www.w3.org/2000/svg"><path d="M16 0C7.163 0 0 7.163 0 16s7.163 16 16 16 16-7.163 16-16S24.837 0 16 0zM8 8h16c.286 0 .563.061.817.177L16 18.463 7.183 8.176c.254-.116.531-.177.817-.177zM6 22V10c0-.042.002-.084.004-.125l5.864 6.842-5.8 5.8A1.983 1.983 0 015.999 22zm18 2H8c-.177 0-.35-.024-.517-.069l5.691-5.691L16 21.537l2.826-3.297 5.691 5.691c-.167.045-.34.069-.517.069zm2-2c0 .177-.024.35-.069.517l-5.8-5.8 5.865-6.842c.003.041.004.083.004.125v12z"/></svg><svg viewBox="0 0 30 30" id="social--telegram" xmlns="http://www.w3.org/2000/svg"><path d="M15 30c8.286 0 15-6.714 15-15S23.286 0 15 0 0 6.714 0 15s6.714 15 15 15zM6.864 14.675l14.462-5.576c.671-.243 1.258.163 1.04 1.178h.002l-2.463 11.6c-.183.823-.671 1.023-1.355.636l-3.75-2.764-1.809 1.742c-.2.2-.368.369-.756.369l.266-3.816 6.95-6.279c.303-.266-.067-.416-.466-.151l-8.589 5.407-3.702-1.155c-.804-.255-.822-.803.17-1.191z"/></svg></svg>