<?xml version="1.0" encoding="UTF-8" standalone="no"?> <svg width="48" height="48" viewBox="0 0 48 48" fill="none" xmlns="http://www.w3.org/2000/svg">
<path d="M45 33H44V12C43.9984 10.6744 43.4711 9.40356 42.5338 8.46622C41.5964 7.52888 40.3256 7.00159 39 7H9C7.6744 7.00159 6.40356 7.52888 5.46622 8.46622C4.52888 9.40356 4.00159 10.6744 4 12V33H3C2.46957 33 1.96086 33.2107 1.58579 33.5858C1.21071 33.9609 1 34.4696 1 35C1.00159 36.5908 1.63424 38.116 2.75911 39.2409C3.88399 40.3658 5.40919 40.9984 7 41H41C42.5908 40.9984 44.116 40.3658 45.2409 39.2409C46.3658 38.116 46.9984 36.5908 47 35C47 34.4696 46.7893 33.9609 46.4142 33.5858C46.0391 33.2107 45.5304 33 45 33ZM6 12C6 11.2044 6.31607 10.4413 6.87868 9.87868C7.44129 9.31607 8.20435 9 9 9H39C39.7956 9 40.5587 9.31607 41.1213 9.87868C41.6839 10.4413 42 11.2044 42 12V33H6V12ZM41 39H7C5.93913 39 4.92172 38.5786 4.17157 37.8284C3.42143 37.0783 3 36.0609 3 35H45C45 36.0609 44.5786 37.0783 43.8284 37.8284C43.0783 38.5786 42.0609 39 41 39Z" fill="black"/>
<path d="M32.905 12.021C29.8488 12.1147 26.8335 12.7509 24 13.9C21.1682 12.7508 18.1547 12.1139 15.1 12.019C14.8293 12.0064 14.5589 12.0488 14.305 12.1436C14.0511 12.2384 13.8191 12.3836 13.6229 12.5705C13.4266 12.7574 13.2703 12.9821 13.1632 13.231C13.0562 13.48 13.0007 13.748 13 14.019V26.019C12.9998 26.54 13.203 27.0406 13.5662 27.4141C13.9295 27.7877 14.4242 28.0047 14.945 28.019C17.9087 28.0878 20.8316 28.725 23.555 29.896C23.6935 29.965 23.8462 30.001 24.001 30.001C24.1558 30.001 24.3085 29.965 24.447 29.896C27.1683 28.7194 30.0919 28.082 33.056 28.019C33.5767 28.0044 34.0711 27.7873 34.4342 27.4138C34.7972 27.0403 35.0002 26.5399 35 26.019V14.019C35.0008 13.7503 34.947 13.4843 34.8418 13.2371C34.7366 12.9899 34.5822 12.7667 34.388 12.581C34.1935 12.3894 33.9611 12.2406 33.7057 12.1441C33.4503 12.0477 33.1776 12.0057 32.905 12.021ZM15.017 14.021C17.751 14.1118 20.45 14.6639 23 15.654V27.514C20.4258 26.6074 17.7277 26.1016 15 26.014L15.017 14.021ZM32.982 26.021C30.2606 26.1069 27.5685 26.6105 25 27.514V15.653C27.5548 14.6593 30.2601 14.1074 33 14.021L32.982 26.021Z" fill="black"/>
<path d="M16.892 19.164C18.1901 19.3048 19.4748 19.5489 20.734 19.894C20.8209 19.9185 20.9107 19.9309 21.001 19.931C21.2435 19.9317 21.4781 19.8442 21.6609 19.6848C21.8437 19.5254 21.9624 19.305 21.9948 19.0646C22.0272 18.8243 21.9712 18.5803 21.8371 18.3782C21.703 18.1761 21.5001 18.0296 21.266 17.966C19.9033 17.5923 18.5128 17.3282 17.108 17.176C16.9763 17.1594 16.8425 17.1691 16.7146 17.2047C16.5867 17.2404 16.4672 17.3011 16.363 17.3834C16.2588 17.4657 16.172 17.5679 16.1077 17.6841C16.0435 17.8003 16.003 17.9281 15.9886 18.0601C15.9743 18.1921 15.9864 18.3256 16.0242 18.4529C16.062 18.5802 16.1248 18.6987 16.2089 18.8014C16.293 18.9042 16.3967 18.9892 16.514 19.0514C16.6313 19.1137 16.7598 19.1519 16.892 19.164V19.164Z" fill="black"/>
<path d="M27 19.931C27.0903 19.9309 27.1801 19.9185 27.267 19.894C28.5262 19.5489 29.811 19.3048 31.109 19.164C31.3692 19.1312 31.606 18.9975 31.7685 18.7917C31.9311 18.5859 32.0063 18.3245 31.9779 18.0639C31.9496 17.8032 31.82 17.5641 31.6171 17.398C31.4142 17.2319 31.1541 17.1522 30.893 17.176C29.4882 17.3282 28.0978 17.5923 26.735 17.966C26.501 18.0296 26.298 18.1761 26.1639 18.3782C26.0298 18.5803 25.9738 18.8243 26.0062 19.0647C26.0386 19.305 26.1573 19.5254 26.3401 19.6848C26.5229 19.8442 26.7575 19.9317 27 19.931Z" fill="black"/>
<path d="M21.266 21.966C19.9033 21.5923 18.5128 21.3282 17.108 21.176C16.9763 21.1594 16.8425 21.1691 16.7146 21.2047C16.5867 21.2404 16.4672 21.3011 16.363 21.3834C16.2588 21.4657 16.172 21.5679 16.1077 21.6841C16.0435 21.8003 16.003 21.9281 15.9886 22.0601C15.9743 22.1921 15.9864 22.3256 16.0242 22.4529C16.062 22.5802 16.1248 22.6987 16.2089 22.8014C16.293 22.9042 16.3967 22.9892 16.514 23.0514C16.6313 23.1137 16.7598 23.1519 16.892 23.164C18.1901 23.3048 19.4748 23.5489 20.734 23.894C20.8209 23.9185 20.9107 23.9309 21.001 23.931C21.2435 23.9317 21.4781 23.8442 21.6609 23.6848C21.8437 23.5254 21.9624 23.305 21.9948 23.0646C22.0272 22.8243 21.9712 22.5803 21.8371 22.3782C21.703 22.1761 21.5001 22.0296 21.266 21.966V21.966Z" fill="black"/>
<path d="M30.892 21.176C29.4872 21.3282 28.0967 21.5923 26.734 21.966C26.4999 22.0296 26.2968 22.1762 26.1628 22.3784C26.0287 22.5807 25.9727 22.8247 26.0053 23.0652C26.0378 23.3056 26.1567 23.526 26.3397 23.6853C26.5227 23.8446 26.7574 23.9319 27 23.931C27.0903 23.9309 27.1801 23.9185 27.267 23.894C28.5262 23.5489 29.811 23.3048 31.109 23.164C31.3691 23.1312 31.606 22.9975 31.7685 22.7917C31.931 22.5859 32.0062 22.3245 31.9779 22.0639C31.9496 21.8032 31.82 21.5641 31.6171 21.398C31.4142 21.2319 31.1541 21.1522 30.893 21.176H30.892Z" fill="black"/>
</svg>
